<?xml version="1.0" encoding="UTF-8"?><svg xmlns="http://www.w3.org/2000/svg" xmlns:xlink="http://www.w3.org/1999/xlink" contentScriptType="text/ecmascript" width="1125" zoomAndPan="magnify" contentStyleType="text/css" viewBox="0 0 1125 225" height="225" preserveAspectRatio="xMidYMid meet" version="1.0"><defs><clipPath id="clip-0"><path d="M 47.199219 90 L 106 90 L 106 155 L 47.199219 155 Z M 47.199219 90 " clip-rule="nonzero"/></clipPath><clipPath id="clip-1"><path d="M 47.199219 132 L 102 132 L 102 155 L 47.199219 155 Z M 47.199219 132 " clip-rule="nonzero"/></clipPath><clipPath id="clip-2"><path d="M 75 69.027344 L 82 69.027344 L 82 75 L 75 75 Z M 75 69.027344 " clip-rule="nonzero"/></clipPath><clipPath id="clip-3"><path d="M 118 69.027344 L 122 69.027344 L 122 74 L 118 74 Z M 118 69.027344 " clip-rule="nonzero"/></clipPath><clipPath id="clip-4"><path d="M 129 96 L 134.199219 96 L 134.199219 100 L 129 100 Z M 129 96 " clip-rule="nonzero"/></clipPath><clipPath id="clip-5"><path d="M 47.199219 70 L 62 70 L 62 85 L 47.199219 85 Z M 47.199219 70 " clip-rule="nonzero"/></clipPath><clipPath id="clip-6"><path d="M 112 131 L 134.199219 131 L 134.199219 156.027344 L 112 156.027344 Z M 112 131 " clip-rule="nonzero"/></clipPath></defs><rect x="-112.5" width="1350" fill="rgb(100%, 100%, 100%)" y="-22.5" height="270" fill-opacity="1"/><rect x="-112.5" width="1350" fill="rgb(100%, 100%, 100%)" y="-22.5" height="270" fill-opacity="1"/><rect x="-112.5" width="1350" fill="rgb(100%, 100%, 100%)" y="-22.5" height="270" fill-opacity="1"/><rect x="-112.5" width="1350" fill="rgb(89.408875%, 44.709778%, 56.469727%)" y="-22.5" height="270" fill-opacity="1"/><g clip-path="url(#clip-0)"><path fill="rgb(86.669922%, 10.978699%, 29.40979%)" d="M 90.996094 104.664062 C 79.648438 93.316406 67.203125 87.363281 63.199219 91.363281 C 62.753906 91.828125 62.441406 92.371094 62.257812 92.988281 L 62.195312 92.925781 L 58.371094 108.589844 L 54.566406 124.207031 L 50.054688 142.703125 L 47.199219 154.414062 L 64.109375 148.015625 L 85.617188 139.878906 L 102.777344 133.386719 L 102.757812 133.363281 C 103.335938 133.179688 103.847656 132.875 104.292969 132.453125 C 108.296875 128.453125 102.339844 116.007812 90.996094 104.664062 Z M 90.996094 104.664062 " fill-opacity="1" fill-rule="nonzero"/></g><path fill="rgb(81.959534%, 89.019775%, 93.328857%)" d="M 76.5 119.472656 C 65.15625 108.300781 59.199219 96.054688 63.203125 92.117188 C 67.207031 88.175781 79.648438 94.039062 90.996094 105.207031 C 102.34375 116.375 108.296875 128.625 104.292969 132.5625 C 100.289062 136.5 87.847656 130.640625 76.5 119.472656 Z M 76.5 119.472656 " fill-opacity="1" fill-rule="nonzero"/><g clip-path="url(#clip-1)"><path fill="rgb(69.799805%, 11.369324%, 28.239441%)" d="M 101.21875 133.890625 C 99.144531 133.925781 97.160156 133.53125 95.257812 132.707031 L 81.230469 138.015625 L 59.714844 146.144531 L 48.179688 150.511719 L 47.199219 154.53125 L 64.109375 148.132812 L 85.617188 139.996094 L 101.363281 134.039062 Z M 101.21875 133.890625 " fill-opacity="1" fill-rule="nonzero"/></g><path fill="rgb(100%, 74.899292%, 25.489807%)" d="M 119.558594 123.195312 C 119.382812 123.195312 119.214844 123.164062 119.046875 123.105469 C 115.332031 121.710938 111.5 120.824219 107.550781 120.441406 C 103.601562 120.054688 99.667969 120.191406 95.753906 120.839844 L 90.523438 121.710938 C 90.335938 121.738281 90.148438 121.730469 89.960938 121.683594 C 89.777344 121.636719 89.605469 121.558594 89.453125 121.445312 C 89.296875 121.332031 89.167969 121.195312 89.070312 121.03125 C 88.96875 120.871094 88.902344 120.695312 88.871094 120.503906 C 88.839844 120.316406 88.84375 120.128906 88.886719 119.941406 C 88.929688 119.753906 89.003906 119.582031 89.113281 119.425781 C 89.222656 119.269531 89.359375 119.140625 89.519531 119.035156 C 89.679688 118.929688 89.851562 118.859375 90.042969 118.824219 L 95.269531 117.945312 C 99.4375 117.253906 103.625 117.113281 107.832031 117.519531 C 112.035156 117.929688 116.117188 118.871094 120.074219 120.355469 C 120.410156 120.472656 120.671875 120.691406 120.847656 121 C 121.027344 121.308594 121.085938 121.640625 121.023438 121.992188 C 120.960938 122.34375 120.789062 122.632812 120.515625 122.859375 C 120.238281 123.089844 119.921875 123.199219 119.5625 123.195312 Z M 119.558594 123.195312 " fill-opacity="1" fill-rule="nonzero"/><path fill="rgb(100%, 74.899292%, 25.489807%)" d="M 93.207031 114.414062 C 92.867188 114.410156 92.5625 114.304688 92.296875 114.089844 C 92.03125 113.875 91.863281 113.605469 91.789062 113.273438 C 91.710938 112.941406 91.75 112.621094 91.898438 112.3125 C 92.042969 112.007812 92.273438 111.777344 92.578125 111.632812 L 123.320312 96.992188 C 123.496094 96.910156 123.679688 96.863281 123.875 96.851562 C 124.066406 96.84375 124.257812 96.871094 124.4375 96.933594 C 124.621094 97 124.785156 97.097656 124.929688 97.226562 C 125.074219 97.355469 125.1875 97.511719 125.269531 97.683594 C 125.355469 97.859375 125.402344 98.042969 125.410156 98.238281 C 125.421875 98.433594 125.394531 98.621094 125.328125 98.804688 C 125.265625 98.984375 125.167969 99.148438 125.039062 99.292969 C 124.90625 99.4375 124.753906 99.550781 124.582031 99.636719 L 93.835938 114.273438 C 93.636719 114.367188 93.429688 114.414062 93.207031 114.414062 Z M 93.207031 114.414062 " fill-opacity="1" fill-rule="nonzero"/><path fill="rgb(100%, 74.899292%, 25.489807%)" d="M 76.089844 111.484375 C 75.894531 111.484375 75.707031 111.445312 75.527344 111.371094 C 75.347656 111.296875 75.1875 111.191406 75.050781 111.050781 C 74.914062 110.914062 74.808594 110.753906 74.734375 110.574219 C 74.660156 110.394531 74.625 110.207031 74.625 110.011719 C 74.625 109.820312 74.664062 109.632812 74.738281 109.453125 L 76.867188 104.34375 C 78.503906 100.433594 79.511719 96.363281 79.882812 92.136719 C 80.257812 87.914062 79.980469 83.730469 79.054688 79.589844 C 79.007812 79.402344 79 79.210938 79.03125 79.019531 C 79.0625 78.828125 79.128906 78.652344 79.230469 78.484375 C 79.328125 78.320312 79.457031 78.179688 79.617188 78.066406 C 79.773438 77.953125 79.945312 77.875 80.132812 77.828125 C 80.320312 77.78125 80.511719 77.773438 80.703125 77.804688 C 80.894531 77.832031 81.074219 77.898438 81.238281 78 C 81.402344 78.101562 81.542969 78.230469 81.660156 78.386719 C 81.773438 78.542969 81.851562 78.714844 81.898438 78.902344 C 81.898438 78.921875 81.90625 78.9375 81.910156 78.953125 C 82.902344 83.390625 83.199219 87.871094 82.800781 92.398438 C 82.402344 96.925781 81.324219 101.285156 79.570312 105.480469 L 77.4375 110.585938 C 77.324219 110.859375 77.144531 111.074219 76.898438 111.238281 C 76.652344 111.402344 76.382812 111.484375 76.089844 111.484375 Z M 76.089844 111.484375 " fill-opacity="1" fill-rule="nonzero"/><path fill="rgb(83.529663%, 33.329773%, 49.409485%)" d="M 129.707031 125.589844 C 129.707031 125.972656 129.636719 126.339844 129.488281 126.691406 C 129.34375 127.042969 129.136719 127.351562 128.867188 127.621094 C 128.597656 127.890625 128.285156 128.101562 127.933594 128.246094 C 127.582031 128.390625 127.214844 128.464844 126.835938 128.464844 C 126.453125 128.464844 126.085938 128.390625 125.734375 128.246094 C 125.382812 128.101562 125.070312 127.890625 124.800781 127.621094 C 124.53125 127.351562 124.324219 127.042969 124.179688 126.691406 C 124.035156 126.339844 123.960938 125.972656 123.960938 125.589844 C 123.960938 125.210938 124.035156 124.84375 124.179688 124.492188 C 124.324219 124.140625 124.53125 123.828125 124.800781 123.558594 C 125.070312 123.289062 125.382812 123.082031 125.734375 122.9375 C 126.085938 122.789062 126.453125 122.71875 126.835938 122.71875 C 127.214844 122.71875 127.582031 122.789062 127.933594 122.9375 C 128.285156 123.082031 128.597656 123.289062 128.867188 123.558594 C 129.136719 123.828125 129.34375 124.140625 129.488281 124.492188 C 129.636719 124.84375 129.707031 125.210938 129.707031 125.589844 Z M 129.707031 125.589844 " fill-opacity="1" fill-rule="nonzero"/><path fill="rgb(86.669922%, 58.428955%, 75.689697%)" d="M 94.445312 84.984375 C 94.445312 85.367188 94.375 85.734375 94.226562 86.085938 C 94.082031 86.4375 93.875 86.75 93.605469 87.019531 C 93.335938 87.289062 93.023438 87.496094 92.671875 87.640625 C 92.320312 87.785156 91.953125 87.859375 91.574219 87.859375 C 91.191406 87.859375 90.824219 87.785156 90.472656 87.640625 C 90.121094 87.496094 89.808594 87.289062 89.539062 87.019531 C 89.269531 86.75 89.0625 86.4375 88.917969 86.085938 C 88.773438 85.734375 88.699219 85.367188 88.699219 84.984375 C 88.699219 84.605469 88.773438 84.238281 88.917969 83.886719 C 89.0625 83.535156 89.269531 83.222656 89.539062 82.953125 C 89.808594 82.683594 90.121094 82.476562 90.472656 82.332031 C 90.824219 82.183594 91.191406 82.113281 91.574219 82.113281 C 91.953125 82.113281 92.320312 82.183594 92.671875 82.332031 C 93.023438 82.476562 93.335938 82.683594 93.605469 82.953125 C 93.875 83.222656 94.082031 83.535156 94.226562 83.886719 C 94.375 84.238281 94.445312 84.605469 94.445312 84.984375 Z M 94.445312 84.984375 " fill-opacity="1" fill-rule="nonzero"/><g clip-path="url(#clip-2)"><path fill="rgb(49.798584%, 79.998779%, 79.60968%)" d="M 78.15625 74.886719 C 77.769531 74.886719 77.394531 74.8125 77.039062 74.664062 C 76.679688 74.515625 76.363281 74.300781 76.089844 74.027344 C 75.8125 73.753906 75.601562 73.4375 75.453125 73.078125 C 75.304688 72.71875 75.230469 72.347656 75.230469 71.957031 C 75.230469 71.570312 75.304688 71.195312 75.453125 70.835938 C 75.601562 70.480469 75.8125 70.164062 76.089844 69.886719 C 76.363281 69.613281 76.679688 69.402344 77.039062 69.253906 C 77.394531 69.105469 77.769531 69.03125 78.15625 69.03125 C 78.546875 69.03125 78.917969 69.105469 79.277344 69.253906 C 79.636719 69.402344 79.953125 69.613281 80.226562 69.886719 C 80.503906 70.164062 80.714844 70.480469 80.863281 70.835938 C 81.011719 71.195312 81.085938 71.570312 81.085938 71.957031 C 81.085938 72.347656 81.011719 72.71875 80.863281 73.078125 C 80.714844 73.4375 80.503906 73.753906 80.226562 74.027344 C 79.953125 74.300781 79.636719 74.515625 79.277344 74.664062 C 78.917969 74.8125 78.546875 74.886719 78.15625 74.886719 Z M 78.15625 74.886719 " fill-opacity="1" fill-rule="nonzero"/></g><path fill="rgb(13.328552%, 46.269226%, 73.329163%)" d="M 119.558594 80.742188 C 119.367188 80.742188 119.179688 80.703125 119 80.628906 C 118.820312 80.554688 118.660156 80.449219 118.523438 80.3125 C 118.386719 80.175781 118.28125 80.015625 118.207031 79.835938 C 118.132812 79.65625 118.097656 79.472656 118.097656 79.277344 L 118.097656 77.8125 C 118.097656 77.617188 118.132812 77.429688 118.207031 77.253906 C 118.28125 77.074219 118.386719 76.914062 118.523438 76.777344 C 118.664062 76.640625 118.820312 76.535156 119 76.460938 C 119.179688 76.386719 119.367188 76.347656 119.558594 76.347656 C 119.753906 76.347656 119.941406 76.386719 120.121094 76.460938 C 120.300781 76.535156 120.457031 76.640625 120.597656 76.777344 C 120.734375 76.914062 120.839844 77.074219 120.914062 77.253906 C 120.988281 77.429688 121.023438 77.617188 121.023438 77.8125 L 121.023438 79.277344 C 121.023438 79.46875 120.988281 79.65625 120.914062 79.835938 C 120.839844 80.015625 120.734375 80.175781 120.597656 80.3125 C 120.457031 80.449219 120.300781 80.554688 120.121094 80.628906 C 119.941406 80.703125 119.753906 80.742188 119.558594 80.742188 Z M 119.558594 80.742188 " fill-opacity="1" fill-rule="nonzero"/><g clip-path="url(#clip-3)"><path fill="rgb(13.328552%, 46.269226%, 73.329163%)" d="M 119.558594 73.421875 C 119.367188 73.421875 119.179688 73.382812 119 73.308594 C 118.820312 73.234375 118.660156 73.128906 118.523438 72.992188 C 118.386719 72.855469 118.28125 72.695312 118.207031 72.519531 C 118.132812 72.339844 118.097656 72.152344 118.097656 71.957031 L 118.097656 70.492188 C 118.097656 70.296875 118.132812 70.113281 118.207031 69.933594 C 118.28125 69.753906 118.386719 69.59375 118.523438 69.457031 C 118.664062 69.320312 118.820312 69.214844 119 69.140625 C 119.179688 69.066406 119.367188 69.027344 119.558594 69.027344 C 119.753906 69.027344 119.941406 69.066406 120.121094 69.140625 C 120.300781 69.214844 120.457031 69.320312 120.597656 69.457031 C 120.734375 69.59375 120.839844 69.753906 120.914062 69.933594 C 120.988281 70.113281 121.023438 70.296875 121.023438 70.492188 L 121.023438 71.957031 C 121.023438 72.152344 120.988281 72.335938 120.914062 72.515625 C 120.839844 72.695312 120.734375 72.855469 120.597656 72.992188 C 120.457031 73.128906 120.300781 73.234375 120.121094 73.308594 C 119.941406 73.382812 119.753906 73.421875 119.558594 73.421875 Z M 119.558594 73.421875 " fill-opacity="1" fill-rule="nonzero"/></g><path fill="rgb(13.328552%, 46.269226%, 73.329163%)" d="M 123.949219 76.347656 L 122.488281 76.347656 C 122.292969 76.347656 122.105469 76.3125 121.925781 76.238281 C 121.746094 76.164062 121.589844 76.058594 121.453125 75.921875 C 121.316406 75.78125 121.210938 75.625 121.132812 75.445312 C 121.058594 75.265625 121.023438 75.078125 121.023438 74.886719 C 121.023438 74.691406 121.058594 74.503906 121.132812 74.324219 C 121.210938 74.144531 121.316406 73.988281 121.453125 73.851562 C 121.589844 73.710938 121.746094 73.605469 121.925781 73.53125 C 122.105469 73.457031 122.292969 73.421875 122.488281 73.421875 L 123.949219 73.421875 C 124.144531 73.421875 124.332031 73.457031 124.511719 73.53125 C 124.691406 73.605469 124.847656 73.710938 124.984375 73.851562 C 125.121094 73.988281 125.230469 74.144531 125.304688 74.324219 C 125.378906 74.503906 125.414062 74.691406 125.414062 74.886719 C 125.414062 75.078125 125.378906 75.265625 125.304688 75.445312 C 125.230469 75.625 125.121094 75.78125 124.984375 75.921875 C 124.847656 76.058594 124.691406 76.164062 124.511719 76.238281 C 124.332031 76.3125 124.144531 76.347656 123.949219 76.347656 Z M 123.949219 76.347656 " fill-opacity="1" fill-rule="nonzero"/><path fill="rgb(13.328552%, 46.269226%, 73.329163%)" d="M 116.632812 76.347656 L 115.167969 76.347656 C 114.972656 76.347656 114.785156 76.3125 114.605469 76.238281 C 114.429688 76.164062 114.269531 76.058594 114.132812 75.921875 C 113.996094 75.78125 113.890625 75.625 113.816406 75.445312 C 113.742188 75.265625 113.703125 75.078125 113.703125 74.886719 C 113.703125 74.691406 113.742188 74.503906 113.816406 74.324219 C 113.890625 74.144531 113.996094 73.988281 114.132812 73.851562 C 114.269531 73.710938 114.429688 73.605469 114.605469 73.53125 C 114.785156 73.457031 114.972656 73.421875 115.167969 73.421875 L 116.632812 73.421875 C 116.824219 73.421875 117.011719 73.457031 117.191406 73.53125 C 117.371094 73.605469 117.527344 73.710938 117.667969 73.851562 C 117.804688 73.988281 117.910156 74.144531 117.984375 74.324219 C 118.058594 74.503906 118.09375 74.691406 118.09375 74.886719 C 118.09375 75.078125 118.058594 75.265625 117.984375 75.445312 C 117.910156 75.625 117.804688 75.78125 117.667969 75.921875 C 117.527344 76.058594 117.371094 76.164062 117.191406 76.238281 C 117.011719 76.3125 116.824219 76.347656 116.632812 76.347656 Z M 116.632812 76.347656 " fill-opacity="1" fill-rule="nonzero"/><path fill="rgb(100%, 100%, 100%)" d="M 58.820312 110.613281 C 58.65625 109.984375 58.507812 109.355469 58.375 108.707031 L 54.566406 124.328125 L 54.859375 127.898438 C 55.019531 129.785156 55.335938 131.648438 55.816406 133.480469 C 56.296875 135.316406 56.933594 137.09375 57.71875 138.816406 C 58.507812 140.542969 59.4375 142.183594 60.511719 143.746094 C 61.582031 145.308594 62.78125 146.769531 64.109375 148.125 L 85.617188 139.996094 C 85.5 139.957031 85.378906 139.933594 85.261719 139.890625 C 83.660156 139.292969 82.101562 138.597656 80.582031 137.8125 C 79.0625 137.023438 77.597656 136.148438 76.183594 135.1875 C 74.769531 134.226562 73.417969 133.183594 72.128906 132.058594 C 70.839844 130.9375 69.625 129.738281 68.476562 128.46875 C 67.332031 127.203125 66.265625 125.867188 65.277344 124.472656 C 64.289062 123.074219 63.390625 121.625 62.578125 120.121094 C 61.765625 118.617188 61.042969 117.070312 60.414062 115.480469 C 59.785156 113.886719 59.253906 112.265625 58.820312 110.613281 Z M 58.820312 110.613281 " fill-opacity="1" fill-rule="nonzero"/><path fill="rgb(96.469116%, 96.469116%, 90.589905%)" d="M 85.761719 139.992188 C 85.644531 139.957031 85.523438 139.929688 85.40625 139.890625 C 83.996094 139.355469 82.621094 138.75 81.273438 138.070312 L 61.898438 145.402344 C 62.632812 146.355469 63.417969 147.265625 64.253906 148.132812 Z M 85.761719 139.992188 " fill-opacity="1" fill-rule="nonzero"/><path fill="rgb(78.819275%, 85.488892%, 32.548523%)" d="M 101.761719 86.375 L 109.113281 86.375 L 109.113281 93.726562 L 101.761719 93.726562 Z M 101.761719 86.375 " fill-opacity="1" fill-rule="nonzero"/><path fill="rgb(100%, 74.899292%, 25.489807%)" d="M 82.640625 112.609375 C 82.335938 112.609375 82.0625 112.523438 81.8125 112.351562 C 81.5625 112.179688 81.382812 111.953125 81.273438 111.671875 C 81.164062 111.386719 81.148438 111.097656 81.21875 110.804688 C 81.289062 110.511719 81.4375 110.261719 81.660156 110.058594 L 96.300781 96.878906 C 96.445312 96.753906 96.609375 96.660156 96.789062 96.597656 C 96.972656 96.535156 97.160156 96.507812 97.351562 96.519531 C 97.542969 96.53125 97.726562 96.578125 97.898438 96.664062 C 98.070312 96.746094 98.222656 96.859375 98.351562 97.003906 C 98.480469 97.144531 98.578125 97.308594 98.640625 97.488281 C 98.707031 97.667969 98.734375 97.855469 98.726562 98.046875 C 98.71875 98.242188 98.671875 98.421875 98.59375 98.597656 C 98.511719 98.773438 98.398438 98.925781 98.257812 99.054688 L 83.613281 112.234375 C 83.335938 112.484375 83.007812 112.609375 82.632812 112.609375 Z M 82.640625 112.609375 " fill-opacity="1" fill-rule="nonzero"/><path fill="rgb(100%, 85.879517%, 26.269531%)" d="M 125.414062 107.089844 C 125.21875 107.089844 125.035156 107.054688 124.855469 106.980469 C 124.675781 106.90625 124.515625 106.800781 124.378906 106.664062 C 124.242188 106.527344 124.136719 106.367188 124.0625 106.1875 C 123.988281 106.007812 123.949219 105.820312 123.949219 105.628906 L 123.949219 104.164062 C 123.949219 103.96875 123.988281 103.785156 124.0625 103.605469 C 124.136719 103.425781 124.242188 103.265625 124.378906 103.128906 C 124.515625 102.992188 124.675781 102.886719 124.855469 102.8125 C 125.035156 102.738281 125.21875 102.699219 125.414062 102.699219 C 125.609375 102.699219 125.796875 102.738281 125.972656 102.8125 C 126.152344 102.886719 126.3125 102.992188 126.449219 103.128906 C 126.585938 103.265625 126.691406 103.425781 126.765625 103.605469 C 126.839844 103.785156 126.878906 103.96875 126.878906 104.164062 L 126.878906 105.628906 C 126.878906 105.820312 126.839844 106.007812 126.765625 106.1875 C 126.691406 106.367188 126.585938 106.527344 126.449219 106.664062 C 126.3125 106.800781 126.152344 106.90625 125.972656 106.980469 C 125.796875 107.054688 125.609375 107.089844 125.414062 107.089844 Z M 125.414062 107.089844 " fill-opacity="1" fill-rule="nonzero"/><path fill="rgb(100%, 85.879517%, 26.269531%)" d="M 130.589844 104.949219 C 130.1875 104.949219 129.839844 104.804688 129.554688 104.519531 L 128.519531 103.484375 C 128.382812 103.347656 128.277344 103.1875 128.207031 103.007812 C 128.132812 102.828125 128.09375 102.644531 128.09375 102.449219 C 128.09375 102.257812 128.132812 102.070312 128.207031 101.890625 C 128.28125 101.710938 128.386719 101.554688 128.523438 101.417969 C 128.660156 101.28125 128.820312 101.175781 128.996094 101.101562 C 129.175781 101.027344 129.363281 100.988281 129.558594 100.988281 C 129.75 100.988281 129.9375 101.023438 130.117188 101.097656 C 130.296875 101.171875 130.453125 101.277344 130.589844 101.414062 L 131.625 102.449219 C 131.835938 102.65625 131.96875 102.90625 132.027344 103.199219 C 132.085938 103.488281 132.054688 103.769531 131.941406 104.042969 C 131.828125 104.316406 131.648438 104.535156 131.402344 104.699219 C 131.15625 104.863281 130.886719 104.949219 130.589844 104.949219 Z M 130.589844 104.949219 " fill-opacity="1" fill-rule="nonzero"/><g clip-path="url(#clip-4)"><path fill="rgb(100%, 85.879517%, 26.269531%)" d="M 132.734375 99.769531 L 131.269531 99.769531 C 131.074219 99.769531 130.890625 99.734375 130.710938 99.660156 C 130.53125 99.585938 130.371094 99.480469 130.234375 99.34375 C 130.097656 99.203125 129.992188 99.046875 129.917969 98.867188 C 129.84375 98.6875 129.804688 98.5 129.804688 98.308594 C 129.804688 98.113281 129.84375 97.925781 129.917969 97.746094 C 129.992188 97.566406 130.097656 97.410156 130.234375 97.273438 C 130.371094 97.136719 130.53125 97.03125 130.710938 96.953125 C 130.890625 96.878906 131.074219 96.84375 131.269531 96.84375 L 132.734375 96.84375 C 132.929688 96.84375 133.113281 96.878906 133.292969 96.953125 C 133.472656 97.03125 133.632812 97.136719 133.769531 97.273438 C 133.90625 97.410156 134.011719 97.566406 134.085938 97.746094 C 134.160156 97.925781 134.199219 98.113281 134.199219 98.308594 C 134.199219 98.5 134.160156 98.6875 134.085938 98.867188 C 134.011719 99.046875 133.90625 99.203125 133.769531 99.34375 C 133.632812 99.480469 133.472656 99.585938 133.292969 99.660156 C 133.113281 99.734375 132.929688 99.769531 132.734375 99.769531 Z M 132.734375 99.769531 " fill-opacity="1" fill-rule="nonzero"/></g><path fill="rgb(100%, 85.879517%, 26.269531%)" d="M 129.558594 95.628906 C 129.261719 95.628906 128.988281 95.546875 128.742188 95.382812 C 128.496094 95.21875 128.316406 95 128.203125 94.726562 C 128.089844 94.453125 128.0625 94.171875 128.121094 93.882812 C 128.179688 93.589844 128.3125 93.339844 128.523438 93.132812 L 129.558594 92.097656 C 129.695312 91.960938 129.851562 91.855469 130.03125 91.78125 C 130.210938 91.707031 130.398438 91.671875 130.589844 91.671875 C 130.785156 91.671875 130.972656 91.707031 131.152344 91.78125 C 131.328125 91.855469 131.488281 91.960938 131.625 92.097656 C 131.761719 92.234375 131.867188 92.394531 131.941406 92.574219 C 132.015625 92.753906 132.054688 92.9375 132.054688 93.132812 C 132.054688 93.328125 132.015625 93.511719 131.945312 93.691406 C 131.871094 93.871094 131.765625 94.03125 131.628906 94.167969 L 130.59375 95.203125 C 130.304688 95.488281 129.960938 95.628906 129.558594 95.628906 Z M 129.558594 95.628906 " fill-opacity="1" fill-rule="nonzero"/><path fill="rgb(100%, 85.879517%, 26.269531%)" d="M 125.414062 93.917969 C 125.21875 93.917969 125.035156 93.878906 124.855469 93.804688 C 124.675781 93.730469 124.515625 93.625 124.378906 93.488281 C 124.242188 93.351562 124.136719 93.191406 124.0625 93.011719 C 123.988281 92.832031 123.949219 92.648438 123.949219 92.453125 L 123.949219 90.988281 C 123.949219 90.796875 123.988281 90.609375 124.0625 90.429688 C 124.136719 90.25 124.242188 90.089844 124.378906 89.953125 C 124.515625 89.816406 124.675781 89.710938 124.855469 89.636719 C 125.035156 89.5625 125.21875 89.527344 125.414062 89.527344 C 125.609375 89.527344 125.796875 89.5625 125.972656 89.636719 C 126.152344 89.710938 126.3125 89.816406 126.449219 89.953125 C 126.585938 90.089844 126.691406 90.25 126.765625 90.429688 C 126.839844 90.609375 126.878906 90.796875 126.878906 90.988281 L 126.878906 92.453125 C 126.878906 92.648438 126.839844 92.832031 126.765625 93.011719 C 126.691406 93.191406 126.585938 93.351562 126.449219 93.488281 C 126.3125 93.625 126.152344 93.730469 125.972656 93.804688 C 125.796875 93.878906 125.609375 93.917969 125.414062 93.917969 Z M 125.414062 93.917969 " fill-opacity="1" fill-rule="nonzero"/><path fill="rgb(100%, 85.879517%, 26.269531%)" d="M 121.273438 95.628906 C 120.867188 95.628906 120.523438 95.488281 120.238281 95.199219 L 119.203125 94.164062 C 119.066406 94.027344 118.960938 93.871094 118.886719 93.691406 C 118.8125 93.511719 118.777344 93.324219 118.777344 93.132812 C 118.777344 92.9375 118.8125 92.75 118.886719 92.570312 C 118.960938 92.394531 119.066406 92.234375 119.203125 92.097656 C 119.34375 91.960938 119.5 91.855469 119.679688 91.78125 C 119.859375 91.707031 120.042969 91.667969 120.238281 91.667969 C 120.433594 91.667969 120.617188 91.707031 120.796875 91.78125 C 120.976562 91.851562 121.136719 91.957031 121.273438 92.097656 L 122.308594 93.128906 C 122.515625 93.339844 122.652344 93.589844 122.707031 93.878906 C 122.765625 94.171875 122.738281 94.453125 122.625 94.726562 C 122.511719 95 122.332031 95.21875 122.085938 95.382812 C 121.839844 95.546875 121.570312 95.628906 121.273438 95.628906 Z M 121.273438 95.628906 " fill-opacity="1" fill-rule="nonzero"/><g clip-path="url(#clip-5)"><path fill="rgb(100%, 85.879517%, 26.269531%)" d="M 54.519531 70.492188 L 56.78125 75.078125 L 61.835938 75.8125 L 58.175781 79.378906 L 59.039062 84.417969 L 54.519531 82.035156 L 49.996094 84.417969 L 50.859375 79.378906 L 47.199219 75.8125 L 52.257812 75.078125 Z M 54.519531 70.492188 " fill-opacity="1" fill-rule="nonzero"/></g><g clip-path="url(#clip-6)"><path fill="rgb(16.859436%, 70.199585%, 80.778503%)" d="M 133.738281 147.449219 C 133.390625 146.21875 132.828125 145.089844 132.050781 144.066406 C 131.277344 143.046875 130.34375 142.203125 129.25 141.535156 L 128.644531 140.628906 C 127.808594 139.378906 126.855469 138.226562 125.78125 137.167969 C 124.710938 136.113281 123.542969 135.175781 122.277344 134.359375 C 121.015625 133.542969 119.679688 132.859375 118.277344 132.316406 C 116.875 131.769531 115.429688 131.375 113.945312 131.125 C 113.757812 131.097656 113.570312 131.105469 113.382812 131.152344 C 113.199219 131.199219 113.027344 131.277344 112.875 131.390625 C 112.71875 131.503906 112.589844 131.640625 112.492188 131.804688 C 112.390625 131.964844 112.324219 132.140625 112.292969 132.332031 C 112.261719 132.519531 112.265625 132.707031 112.308594 132.894531 C 112.351562 133.082031 112.425781 133.253906 112.535156 133.410156 C 112.644531 133.566406 112.78125 133.695312 112.941406 133.800781 C 113.101562 133.90625 113.273438 133.976562 113.464844 134.011719 C 115.628906 134.378906 117.667969 135.09375 119.585938 136.164062 C 121.5 137.230469 123.183594 138.589844 124.636719 140.238281 C 123.414062 140.457031 122.296875 140.917969 121.273438 141.617188 C 120.253906 142.320312 119.421875 143.199219 118.78125 144.257812 C 118.59375 144.59375 118.445312 144.945312 118.332031 145.308594 C 118.214844 145.671875 118.136719 146.046875 118.09375 146.425781 C 118.050781 146.808594 118.046875 147.1875 118.078125 147.570312 C 118.113281 147.949219 118.179688 148.324219 118.285156 148.691406 C 118.390625 149.058594 118.53125 149.414062 118.707031 149.753906 C 118.882812 150.09375 119.089844 150.414062 119.328125 150.714844 C 119.566406 151.011719 119.828125 151.285156 120.121094 151.535156 C 120.414062 151.78125 120.726562 152 121.058594 152.1875 C 121.394531 152.371094 121.742188 152.523438 122.105469 152.644531 C 122.46875 152.761719 122.84375 152.84375 123.222656 152.886719 C 123.601562 152.933594 123.980469 152.941406 124.363281 152.910156 C 124.746094 152.882812 125.121094 152.816406 125.488281 152.714844 C 125.855469 152.609375 126.210938 152.472656 126.554688 152.300781 C 126.894531 152.128906 127.214844 151.925781 127.519531 151.6875 C 127.820312 151.453125 128.09375 151.191406 128.34375 150.902344 C 128.59375 150.613281 128.816406 150.300781 129.003906 149.96875 C 129.613281 148.789062 129.933594 147.539062 129.953125 146.210938 C 130.335938 146.765625 130.632812 147.363281 130.847656 148 C 131.0625 148.636719 131.183594 149.292969 131.210938 149.964844 C 131.238281 150.636719 131.171875 151.300781 131.015625 151.957031 C 130.855469 152.609375 130.609375 153.230469 130.277344 153.8125 C 130.179688 153.980469 130.117188 154.160156 130.089844 154.351562 C 130.0625 154.542969 130.074219 154.734375 130.121094 154.921875 C 130.167969 155.105469 130.25 155.277344 130.367188 155.433594 C 130.484375 155.589844 130.625 155.714844 130.792969 155.8125 C 130.957031 155.914062 131.136719 155.976562 131.328125 156.003906 C 131.519531 156.03125 131.710938 156.023438 131.898438 155.972656 C 132.085938 155.925781 132.257812 155.84375 132.410156 155.730469 C 132.566406 155.613281 132.695312 155.472656 132.792969 155.308594 C 132.808594 155.285156 132.820312 155.261719 132.832031 155.238281 C 133.496094 154.054688 133.910156 152.785156 134.066406 151.4375 C 134.222656 150.085938 134.113281 148.757812 133.738281 147.449219 Z M 126.449219 148.539062 C 126.261719 148.878906 126.015625 149.171875 125.714844 149.414062 C 125.410156 149.65625 125.074219 149.832031 124.699219 149.9375 C 124.328125 150.046875 123.945312 150.078125 123.5625 150.035156 C 123.175781 149.992188 122.8125 149.875 122.472656 149.6875 C 122.132812 149.5 121.839844 149.257812 121.597656 148.953125 C 121.355469 148.648438 121.183594 148.3125 121.074219 147.9375 C 120.964844 147.566406 120.933594 147.183594 120.976562 146.800781 C 121.019531 146.414062 121.136719 146.050781 121.324219 145.710938 L 121.335938 145.6875 C 121.769531 144.980469 122.332031 144.398438 123.027344 143.945312 C 123.722656 143.496094 124.480469 143.214844 125.304688 143.105469 C 125.5625 143.101562 125.804688 143.15625 126.035156 143.277344 C 127.265625 143.972656 127.335938 146.960938 126.449219 148.542969 Z M 126.449219 148.539062 " fill-opacity="1" fill-rule="nonzero"/></g></svg>