<svg xmlns="http://www.w3.org/2000/svg" width="1125" viewBox="0 0 1125 225" height="225" version="1.0"><defs><clipPath id="a"><path d="M 45.546875 84 L 119 84 L 119 165 L 45.546875 165 Z M 45.546875 84"/></clipPath><clipPath id="b"><path d="M 45.546875 137 L 114 137 L 114 165 L 45.546875 165 Z M 45.546875 137"/></clipPath><clipPath id="c"><path d="M 80 58.078125 L 88 58.078125 L 88 66 L 80 66 Z M 80 58.078125"/></clipPath><clipPath id="d"><path d="M 134 58.078125 L 138 58.078125 L 138 64 L 134 64 Z M 134 58.078125"/></clipPath><clipPath id="e"><path d="M 148 92 L 154.296875 92 L 154.296875 97 L 148 97 Z M 148 92"/></clipPath><clipPath id="f"><path d="M 45.546875 59 L 64 59 L 64 78 L 45.546875 78 Z M 45.546875 59"/></clipPath><clipPath id="g"><path d="M 126 135 L 154.296875 135 L 154.296875 166.828125 L 126 166.828125 Z M 126 135"/></clipPath></defs><path fill="#FFF" d="M-112.5 -22.5H1237.5V247.5H-112.5z"/><path fill="#FFF" d="M-112.5 -22.5H1237.5V247.5H-112.5z"/><path fill="#FFF" d="M-112.5 -22.5H1237.5V247.5H-112.5z"/><path fill="#E47290" d="M-112.5 -22.5H1237.5V247.5H-112.5z"/><g clip-path="url(#a)"><path fill="#DD1C4B" d="M 100.289062 102.617188 C 86.105469 88.4375 70.554688 80.992188 65.546875 85.992188 C 64.992188 86.578125 64.597656 87.253906 64.367188 88.027344 L 64.289062 87.949219 L 59.511719 107.527344 L 54.753906 127.050781 L 49.113281 150.167969 L 45.546875 164.808594 L 66.683594 156.8125 L 93.566406 146.636719 L 115.019531 138.519531 L 114.992188 138.496094 C 115.71875 138.261719 116.359375 137.882812 116.910156 137.359375 C 121.917969 132.355469 114.472656 116.800781 100.289062 102.617188 Z M 100.289062 102.617188"/></g><path fill="#D1E3EE" d="M 82.175781 121.128906 C 67.992188 107.167969 60.546875 91.859375 65.550781 86.9375 C 70.558594 82.011719 86.105469 89.335938 100.289062 103.296875 C 114.476562 117.257812 121.917969 132.570312 116.914062 137.492188 C 111.910156 142.414062 96.359375 135.089844 82.175781 121.128906 Z M 82.175781 121.128906"/><g clip-path="url(#b)"><path fill="#B21D48" d="M 113.070312 139.152344 C 110.480469 139.199219 107.996094 138.707031 105.617188 137.675781 L 88.085938 144.308594 L 61.191406 154.472656 L 46.773438 159.925781 L 45.546875 164.953125 L 66.683594 156.957031 L 93.566406 146.785156 L 113.253906 139.335938 Z M 113.070312 139.152344"/></g><path fill="#FFBF41" d="M 135.996094 125.785156 C 135.777344 125.785156 135.5625 125.746094 135.355469 125.667969 C 130.710938 123.929688 125.921875 122.820312 120.984375 122.339844 C 116.046875 121.859375 111.132812 122.027344 106.238281 122.839844 L 99.703125 123.929688 C 99.464844 123.964844 99.230469 123.953125 99 123.894531 C 98.769531 123.835938 98.554688 123.738281 98.363281 123.597656 C 98.167969 123.457031 98.007812 123.285156 97.882812 123.082031 C 97.757812 122.878906 97.675781 122.65625 97.636719 122.421875 C 97.597656 122.1875 97.601562 121.949219 97.65625 121.71875 C 97.707031 121.484375 97.800781 121.269531 97.9375 121.074219 C 98.074219 120.878906 98.246094 120.714844 98.445312 120.582031 C 98.644531 120.453125 98.863281 120.367188 99.097656 120.320312 L 105.636719 119.222656 C 110.847656 118.355469 116.078125 118.179688 121.335938 118.691406 C 126.59375 119.199219 131.695312 120.382812 136.640625 122.234375 C 136.84375 122.304688 137.03125 122.410156 137.195312 122.550781 C 137.363281 122.6875 137.5 122.851562 137.609375 123.039062 C 137.71875 123.226562 137.789062 123.425781 137.828125 123.640625 C 137.863281 123.855469 137.863281 124.066406 137.824219 124.28125 C 137.785156 124.492188 137.714844 124.691406 137.605469 124.878906 C 137.496094 125.066406 137.355469 125.230469 137.1875 125.367188 C 137.023438 125.503906 136.835938 125.609375 136.632812 125.679688 C 136.429688 125.753906 136.21875 125.789062 136 125.785156 Z M 135.996094 125.785156"/><path fill="#FFBF41" d="M 103.058594 114.804688 C 102.632812 114.804688 102.253906 114.667969 101.921875 114.402344 C 101.589844 114.136719 101.375 113.796875 101.28125 113.378906 C 101.1875 112.964844 101.234375 112.566406 101.417969 112.183594 C 101.601562 111.796875 101.886719 111.515625 102.269531 111.328125 L 140.699219 93.03125 C 140.917969 92.925781 141.148438 92.867188 141.390625 92.855469 C 141.632812 92.84375 141.867188 92.878906 142.097656 92.960938 C 142.324219 93.039062 142.527344 93.160156 142.710938 93.324219 C 142.890625 93.488281 143.03125 93.675781 143.136719 93.894531 C 143.238281 94.117188 143.296875 94.347656 143.3125 94.589844 C 143.324219 94.832031 143.289062 95.066406 143.207031 95.292969 C 143.128906 95.523438 143.007812 95.726562 142.84375 95.90625 C 142.679688 96.085938 142.492188 96.230469 142.273438 96.335938 L 103.84375 114.632812 C 103.59375 114.75 103.332031 114.808594 103.058594 114.804688 Z M 103.058594 114.804688"/><path fill="#FFBF41" d="M 81.660156 111.144531 C 81.414062 111.144531 81.179688 111.097656 80.957031 111.003906 C 80.730469 110.910156 80.535156 110.777344 80.363281 110.605469 C 80.191406 110.433594 80.058594 110.234375 79.964844 110.007812 C 79.875 109.785156 79.828125 109.550781 79.828125 109.308594 C 79.828125 109.0625 79.878906 108.828125 79.972656 108.605469 L 82.632812 102.222656 C 84.679688 97.332031 85.9375 92.242188 86.402344 86.960938 C 86.867188 81.679688 86.523438 76.453125 85.363281 71.277344 C 85.308594 71.042969 85.296875 70.804688 85.335938 70.566406 C 85.375 70.328125 85.457031 70.105469 85.582031 69.898438 C 85.710938 69.691406 85.871094 69.515625 86.066406 69.375 C 86.261719 69.230469 86.476562 69.132812 86.714844 69.074219 C 86.949219 69.019531 87.1875 69.007812 87.425781 69.046875 C 87.664062 69.082031 87.886719 69.164062 88.09375 69.289062 C 88.300781 69.417969 88.476562 69.578125 88.621094 69.773438 C 88.761719 69.96875 88.863281 70.183594 88.921875 70.417969 C 88.921875 70.441406 88.929688 70.460938 88.933594 70.484375 C 89.550781 73.238281 89.953125 76.027344 90.140625 78.84375 C 90.328125 81.660156 90.296875 84.476562 90.046875 87.289062 C 89.800781 90.101562 89.335938 92.878906 88.660156 95.621094 C 87.984375 98.363281 87.097656 101.035156 86.007812 103.640625 L 83.347656 110.023438 C 83.203125 110.363281 82.976562 110.636719 82.671875 110.839844 C 82.363281 111.042969 82.027344 111.144531 81.660156 111.144531 Z M 81.660156 111.144531"/><path fill="#D5557E" d="M 148.683594 128.777344 C 148.683594 129.253906 148.589844 129.714844 148.410156 130.152344 C 148.226562 130.59375 147.96875 130.980469 147.628906 131.320312 C 147.292969 131.65625 146.90625 131.914062 146.464844 132.097656 C 146.023438 132.28125 145.566406 132.371094 145.089844 132.371094 C 144.613281 132.371094 144.15625 132.28125 143.714844 132.097656 C 143.277344 131.914062 142.886719 131.65625 142.550781 131.320312 C 142.214844 130.980469 141.953125 130.59375 141.773438 130.152344 C 141.589844 129.714844 141.5 129.253906 141.5 128.777344 C 141.5 128.300781 141.589844 127.84375 141.773438 127.402344 C 141.953125 126.964844 142.214844 126.574219 142.550781 126.238281 C 142.886719 125.902344 143.277344 125.640625 143.714844 125.460938 C 144.15625 125.277344 144.613281 125.1875 145.089844 125.1875 C 145.566406 125.1875 146.023438 125.277344 146.464844 125.460938 C 146.90625 125.640625 147.292969 125.902344 147.628906 126.238281 C 147.96875 126.574219 148.226562 126.964844 148.410156 127.402344 C 148.589844 127.84375 148.683594 128.300781 148.683594 128.777344 Z M 148.683594 128.777344"/><path fill="#DD95C1" d="M 104.605469 78.023438 C 104.605469 78.5 104.511719 78.957031 104.332031 79.398438 C 104.148438 79.835938 103.890625 80.226562 103.550781 80.5625 C 103.214844 80.898438 102.828125 81.160156 102.386719 81.339844 C 101.949219 81.523438 101.488281 81.613281 101.011719 81.613281 C 100.535156 81.613281 100.078125 81.523438 99.636719 81.339844 C 99.199219 81.160156 98.808594 80.898438 98.472656 80.5625 C 98.136719 80.226562 97.875 79.835938 97.695312 79.398438 C 97.511719 78.957031 97.421875 78.5 97.421875 78.023438 C 97.421875 77.546875 97.511719 77.089844 97.695312 76.648438 C 97.875 76.207031 98.136719 75.820312 98.472656 75.484375 C 98.808594 75.144531 99.199219 74.886719 99.636719 74.703125 C 100.078125 74.523438 100.535156 74.429688 101.011719 74.429688 C 101.488281 74.429688 101.949219 74.523438 102.386719 74.703125 C 102.828125 74.886719 103.214844 75.144531 103.550781 75.484375 C 103.890625 75.820312 104.148438 76.207031 104.332031 76.648438 C 104.511719 77.089844 104.605469 77.546875 104.605469 78.023438 Z M 104.605469 78.023438"/><g clip-path="url(#c)"><path fill="#7FCCCB" d="M 84.246094 65.398438 C 83.757812 65.398438 83.292969 65.304688 82.84375 65.117188 C 82.394531 64.933594 82 64.667969 81.65625 64.324219 C 81.3125 63.980469 81.050781 63.585938 80.863281 63.136719 C 80.679688 62.691406 80.585938 62.222656 80.585938 61.738281 C 80.585938 61.253906 80.679688 60.785156 80.863281 60.335938 C 81.050781 59.890625 81.3125 59.492188 81.65625 59.148438 C 82 58.808594 82.394531 58.542969 82.84375 58.355469 C 83.292969 58.171875 83.757812 58.078125 84.246094 58.078125 C 84.730469 58.078125 85.195312 58.171875 85.644531 58.355469 C 86.09375 58.542969 86.488281 58.808594 86.832031 59.148438 C 87.175781 59.492188 87.4375 59.890625 87.625 60.335938 C 87.8125 60.785156 87.902344 61.253906 87.902344 61.738281 C 87.902344 62.222656 87.8125 62.691406 87.625 63.136719 C 87.4375 63.585938 87.175781 63.980469 86.832031 64.324219 C 86.488281 64.667969 86.09375 64.933594 85.644531 65.117188 C 85.195312 65.304688 84.730469 65.398438 84.246094 65.398438 Z M 84.246094 65.398438"/></g><path fill="#2276BB" d="M 135.996094 72.714844 C 135.753906 72.714844 135.519531 72.671875 135.296875 72.578125 C 135.074219 72.484375 134.875 72.351562 134.703125 72.179688 C 134.53125 72.007812 134.398438 71.8125 134.304688 71.585938 C 134.214844 71.363281 134.167969 71.128906 134.167969 70.886719 L 134.167969 69.054688 C 134.167969 68.8125 134.214844 68.578125 134.304688 68.355469 C 134.398438 68.132812 134.53125 67.933594 134.703125 67.761719 C 134.875 67.589844 135.074219 67.457031 135.296875 67.363281 C 135.519531 67.273438 135.753906 67.226562 135.996094 67.226562 C 136.242188 67.226562 136.472656 67.273438 136.699219 67.363281 C 136.921875 67.457031 137.121094 67.589844 137.292969 67.761719 C 137.464844 67.933594 137.59375 68.132812 137.6875 68.355469 C 137.78125 68.578125 137.828125 68.8125 137.828125 69.054688 L 137.828125 70.886719 C 137.828125 71.128906 137.78125 71.363281 137.6875 71.585938 C 137.597656 71.8125 137.464844 72.007812 137.292969 72.179688 C 137.121094 72.351562 136.921875 72.484375 136.699219 72.578125 C 136.472656 72.671875 136.238281 72.714844 135.996094 72.714844 Z M 135.996094 72.714844"/><g clip-path="url(#d)"><path fill="#2276BB" d="M 135.996094 63.566406 C 135.753906 63.566406 135.519531 63.519531 135.296875 63.429688 C 135.074219 63.335938 134.875 63.203125 134.703125 63.03125 C 134.53125 62.859375 134.398438 62.660156 134.304688 62.4375 C 134.214844 62.214844 134.167969 61.980469 134.167969 61.738281 L 134.167969 59.90625 C 134.167969 59.664062 134.214844 59.429688 134.304688 59.207031 C 134.398438 58.980469 134.53125 58.785156 134.703125 58.613281 C 134.875 58.441406 135.074219 58.308594 135.296875 58.214844 C 135.519531 58.121094 135.753906 58.074219 135.996094 58.074219 C 136.242188 58.074219 136.472656 58.121094 136.699219 58.214844 C 136.921875 58.308594 137.121094 58.441406 137.292969 58.613281 C 137.464844 58.785156 137.59375 58.980469 137.6875 59.207031 C 137.78125 59.429688 137.828125 59.664062 137.828125 59.90625 L 137.828125 61.734375 C 137.828125 61.980469 137.78125 62.210938 137.6875 62.4375 C 137.597656 62.660156 137.464844 62.859375 137.292969 63.03125 C 137.121094 63.203125 136.921875 63.335938 136.699219 63.429688 C 136.472656 63.519531 136.238281 63.566406 135.996094 63.566406 Z M 135.996094 63.566406"/></g><path fill="#2276BB" d="M 141.484375 67.226562 L 139.65625 67.226562 C 139.414062 67.226562 139.179688 67.179688 138.957031 67.085938 C 138.730469 66.992188 138.535156 66.863281 138.363281 66.691406 C 138.191406 66.519531 138.058594 66.320312 137.964844 66.097656 C 137.871094 65.871094 137.828125 65.640625 137.828125 65.398438 C 137.828125 65.152344 137.871094 64.921875 137.964844 64.695312 C 138.058594 64.472656 138.191406 64.273438 138.363281 64.101562 C 138.535156 63.929688 138.730469 63.800781 138.957031 63.707031 C 139.179688 63.613281 139.414062 63.566406 139.65625 63.566406 L 141.484375 63.566406 C 141.726562 63.566406 141.960938 63.613281 142.1875 63.707031 C 142.410156 63.800781 142.609375 63.929688 142.777344 64.101562 C 142.949219 64.273438 143.082031 64.472656 143.175781 64.695312 C 143.269531 64.921875 143.316406 65.152344 143.316406 65.398438 C 143.316406 65.640625 143.269531 65.871094 143.175781 66.097656 C 143.082031 66.320312 142.949219 66.519531 142.777344 66.691406 C 142.609375 66.863281 142.410156 66.992188 142.183594 67.085938 C 141.960938 67.179688 141.726562 67.226562 141.484375 67.226562 Z M 141.484375 67.226562"/><path fill="#2276BB" d="M 132.335938 67.226562 L 130.507812 67.226562 C 130.265625 67.226562 130.03125 67.179688 129.804688 67.085938 C 129.582031 66.992188 129.382812 66.863281 129.210938 66.691406 C 129.042969 66.519531 128.910156 66.320312 128.816406 66.097656 C 128.722656 65.871094 128.675781 65.640625 128.675781 65.398438 C 128.675781 65.152344 128.722656 64.921875 128.816406 64.695312 C 128.910156 64.472656 129.042969 64.273438 129.210938 64.101562 C 129.382812 63.929688 129.582031 63.800781 129.804688 63.707031 C 130.03125 63.613281 130.265625 63.566406 130.507812 63.566406 L 132.335938 63.566406 C 132.578125 63.566406 132.8125 63.613281 133.035156 63.707031 C 133.261719 63.800781 133.457031 63.929688 133.628906 64.101562 C 133.800781 64.273438 133.933594 64.472656 134.027344 64.695312 C 134.121094 64.921875 134.164062 65.152344 134.164062 65.398438 C 134.164062 65.640625 134.121094 65.871094 134.027344 66.097656 C 133.933594 66.320312 133.800781 66.519531 133.628906 66.691406 C 133.457031 66.863281 133.261719 66.992188 133.035156 67.085938 C 132.8125 67.179688 132.578125 67.226562 132.335938 67.226562 Z M 132.335938 67.226562"/><path fill="#FFF" d="M 60.070312 110.054688 C 59.867188 109.273438 59.683594 108.480469 59.511719 107.675781 L 54.753906 127.199219 L 55.121094 131.664062 C 55.320312 134.023438 55.71875 136.351562 56.320312 138.640625 C 56.921875 140.933594 57.710938 143.15625 58.699219 145.3125 C 59.683594 147.464844 60.847656 149.519531 62.1875 151.472656 C 63.527344 153.429688 65.023438 155.253906 66.679688 156.945312 L 93.566406 146.78125 C 93.421875 146.738281 93.269531 146.703125 93.125 146.65625 C 91.121094 145.90625 89.171875 145.039062 87.273438 144.054688 C 85.375 143.070312 83.542969 141.976562 81.777344 140.773438 C 80.011719 139.574219 78.320312 138.269531 76.710938 136.863281 C 75.097656 135.460938 73.574219 133.964844 72.144531 132.378906 C 70.710938 130.792969 69.378906 129.125 68.144531 127.378906 C 66.910156 125.632812 65.785156 123.820312 64.769531 121.941406 C 63.75 120.0625 62.851562 118.125 62.066406 116.140625 C 61.28125 114.152344 60.613281 112.125 60.070312 110.054688 Z M 60.070312 110.054688"/><path fill="#F6F6E7" d="M 93.75 146.78125 C 93.601562 146.734375 93.453125 146.703125 93.304688 146.652344 C 91.542969 145.988281 89.820312 145.226562 88.140625 144.378906 L 63.921875 153.542969 C 64.839844 154.734375 65.820312 155.871094 66.867188 156.953125 Z M 93.75 146.78125"/><path fill="#C9DA53" d="M 113.75 79.757812 L 122.9375 79.757812 L 122.9375 88.949219 L 113.75 88.949219 Z M 113.75 79.757812"/><path fill="#FFBF41" d="M 89.847656 112.550781 C 89.46875 112.550781 89.121094 112.445312 88.8125 112.230469 C 88.5 112.015625 88.273438 111.730469 88.140625 111.378906 C 88.003906 111.023438 87.980469 110.664062 88.070312 110.296875 C 88.15625 109.929688 88.34375 109.617188 88.625 109.363281 L 106.921875 92.890625 C 107.101562 92.734375 107.308594 92.613281 107.535156 92.535156 C 107.761719 92.457031 107.996094 92.425781 108.234375 92.441406 C 108.476562 92.457031 108.703125 92.515625 108.921875 92.617188 C 109.136719 92.722656 109.324219 92.863281 109.488281 93.042969 C 109.648438 93.222656 109.769531 93.425781 109.851562 93.652344 C 109.929688 93.878906 109.964844 94.109375 109.957031 94.351562 C 109.945312 94.589844 109.886719 94.820312 109.785156 95.039062 C 109.6875 95.253906 109.546875 95.445312 109.371094 95.609375 L 91.0625 112.082031 C 90.714844 112.394531 90.308594 112.550781 89.839844 112.550781 Z M 89.847656 112.550781"/><path fill="#FFDB43" d="M 143.316406 105.65625 C 143.074219 105.65625 142.839844 105.609375 142.613281 105.515625 C 142.390625 105.421875 142.191406 105.289062 142.019531 105.117188 C 141.851562 104.949219 141.71875 104.75 141.625 104.527344 C 141.53125 104.300781 141.484375 104.066406 141.484375 103.824219 L 141.484375 101.996094 C 141.484375 101.753906 141.53125 101.519531 141.625 101.296875 C 141.71875 101.070312 141.851562 100.875 142.019531 100.703125 C 142.191406 100.53125 142.390625 100.398438 142.613281 100.304688 C 142.839844 100.210938 143.074219 100.167969 143.316406 100.167969 C 143.558594 100.167969 143.789062 100.210938 144.015625 100.304688 C 144.238281 100.398438 144.4375 100.53125 144.609375 100.703125 C 144.78125 100.875 144.914062 101.070312 145.003906 101.296875 C 145.097656 101.519531 145.144531 101.753906 145.144531 101.996094 L 145.144531 103.824219 C 145.144531 104.066406 145.097656 104.300781 145.003906 104.527344 C 144.914062 104.75 144.78125 104.949219 144.609375 105.117188 C 144.4375 105.289062 144.238281 105.421875 144.015625 105.515625 C 143.789062 105.609375 143.558594 105.65625 143.316406 105.65625 Z M 143.316406 105.65625"/><path fill="#FFDB43" d="M 149.785156 102.972656 C 149.28125 102.976562 148.847656 102.796875 148.492188 102.4375 L 147.199219 101.144531 C 147.027344 100.972656 146.894531 100.777344 146.804688 100.550781 C 146.710938 100.328125 146.664062 100.09375 146.664062 99.851562 C 146.667969 99.609375 146.714844 99.378906 146.804688 99.152344 C 146.898438 98.929688 147.03125 98.734375 147.203125 98.5625 C 147.375 98.390625 147.570312 98.257812 147.792969 98.164062 C 148.019531 98.070312 148.25 98.027344 148.492188 98.023438 C 148.734375 98.023438 148.96875 98.070312 149.191406 98.164062 C 149.417969 98.253906 149.613281 98.386719 149.785156 98.558594 L 151.078125 99.851562 C 151.339844 100.113281 151.507812 100.425781 151.582031 100.789062 C 151.652344 101.152344 151.617188 101.503906 151.476562 101.84375 C 151.335938 102.1875 151.109375 102.460938 150.800781 102.667969 C 150.496094 102.871094 150.15625 102.972656 149.785156 102.972656 Z M 149.785156 102.972656"/><g clip-path="url(#e)"><path fill="#FFDB43" d="M 152.464844 96.503906 L 150.636719 96.503906 C 150.390625 96.503906 150.160156 96.457031 149.933594 96.363281 C 149.710938 96.273438 149.511719 96.140625 149.339844 95.96875 C 149.167969 95.796875 149.039062 95.597656 148.945312 95.375 C 148.851562 95.148438 148.804688 94.917969 148.804688 94.675781 C 148.804688 94.433594 148.851562 94.199219 148.945312 93.972656 C 149.039062 93.75 149.167969 93.550781 149.339844 93.378906 C 149.511719 93.210938 149.710938 93.078125 149.933594 92.984375 C 150.160156 92.890625 150.390625 92.84375 150.636719 92.84375 L 152.464844 92.84375 C 152.707031 92.84375 152.941406 92.890625 153.164062 92.984375 C 153.386719 93.078125 153.585938 93.210938 153.757812 93.378906 C 153.929688 93.550781 154.0625 93.75 154.15625 93.972656 C 154.246094 94.199219 154.292969 94.433594 154.292969 94.675781 C 154.292969 94.917969 154.246094 95.148438 154.15625 95.375 C 154.0625 95.597656 153.929688 95.796875 153.757812 95.96875 C 153.585938 96.140625 153.386719 96.273438 153.164062 96.363281 C 152.941406 96.457031 152.707031 96.503906 152.464844 96.503906 Z M 152.464844 96.503906"/></g><path fill="#FFDB43" d="M 148.492188 91.328125 C 148.125 91.328125 147.785156 91.226562 147.476562 91.019531 C 147.167969 90.816406 146.945312 90.542969 146.804688 90.199219 C 146.660156 89.859375 146.625 89.503906 146.699219 89.140625 C 146.769531 88.777344 146.9375 88.46875 147.199219 88.207031 L 148.492188 86.910156 C 148.664062 86.742188 148.863281 86.609375 149.085938 86.515625 C 149.3125 86.425781 149.542969 86.378906 149.785156 86.378906 C 150.027344 86.378906 150.261719 86.425781 150.484375 86.515625 C 150.710938 86.609375 150.90625 86.742188 151.078125 86.914062 C 151.25 87.085938 151.382812 87.28125 151.476562 87.507812 C 151.566406 87.730469 151.613281 87.964844 151.613281 88.207031 C 151.613281 88.449219 151.570312 88.679688 151.476562 88.90625 C 151.382812 89.128906 151.253906 89.328125 151.082031 89.5 L 149.789062 90.792969 C 149.429688 91.148438 149 91.328125 148.492188 91.328125 Z M 148.492188 91.328125"/><path fill="#FFDB43" d="M 143.316406 89.1875 C 143.074219 89.1875 142.839844 89.140625 142.613281 89.046875 C 142.390625 88.953125 142.191406 88.820312 142.019531 88.648438 C 141.851562 88.476562 141.71875 88.28125 141.625 88.054688 C 141.53125 87.832031 141.484375 87.597656 141.484375 87.355469 L 141.484375 85.527344 C 141.484375 85.285156 141.53125 85.050781 141.625 84.828125 C 141.71875 84.601562 141.851562 84.40625 142.019531 84.234375 C 142.191406 84.0625 142.390625 83.929688 142.613281 83.835938 C 142.839844 83.742188 143.074219 83.695312 143.316406 83.695312 C 143.558594 83.695312 143.789062 83.742188 144.015625 83.835938 C 144.238281 83.929688 144.4375 84.0625 144.609375 84.234375 C 144.78125 84.40625 144.914062 84.601562 145.003906 84.828125 C 145.097656 85.050781 145.144531 85.285156 145.144531 85.527344 L 145.144531 87.355469 C 145.144531 87.597656 145.097656 87.832031 145.003906 88.054688 C 144.914062 88.28125 144.78125 88.476562 144.609375 88.648438 C 144.4375 88.820312 144.238281 88.953125 144.015625 89.046875 C 143.789062 89.140625 143.558594 89.1875 143.316406 89.1875 Z M 143.316406 89.1875"/><path fill="#FFDB43" d="M 138.136719 91.328125 C 137.632812 91.328125 137.203125 91.148438 136.84375 90.792969 L 135.550781 89.496094 C 135.378906 89.324219 135.246094 89.128906 135.15625 88.902344 C 135.0625 88.679688 135.015625 88.445312 135.015625 88.203125 C 135.015625 87.960938 135.0625 87.730469 135.15625 87.503906 C 135.25 87.28125 135.382812 87.082031 135.554688 86.914062 C 135.722656 86.742188 135.921875 86.609375 136.144531 86.515625 C 136.371094 86.421875 136.601562 86.375 136.84375 86.375 C 137.085938 86.375 137.320312 86.421875 137.542969 86.515625 C 137.769531 86.605469 137.964844 86.738281 138.136719 86.910156 L 139.433594 88.203125 C 139.695312 88.464844 139.859375 88.777344 139.933594 89.140625 C 140.003906 89.503906 139.96875 89.855469 139.828125 90.199219 C 139.6875 90.539062 139.460938 90.8125 139.15625 91.019531 C 138.847656 91.222656 138.507812 91.328125 138.136719 91.328125 Z M 138.136719 91.328125"/><g clip-path="url(#f)"><path fill="#FFDB43" d="M 54.695312 59.90625 L 57.523438 65.636719 L 63.84375 66.554688 L 59.269531 71.015625 L 60.347656 77.3125 L 54.695312 74.335938 L 49.039062 77.3125 L 50.121094 71.015625 L 45.546875 66.554688 L 51.867188 65.636719 Z M 54.695312 59.90625"/></g><g clip-path="url(#g)"><path fill="#2BB3CE" d="M 153.71875 156.105469 C 153.285156 154.5625 152.582031 153.152344 151.613281 151.875 C 150.644531 150.597656 149.476562 149.542969 148.109375 148.707031 L 147.355469 147.578125 C 146.308594 146.015625 145.117188 144.570312 143.773438 143.25 C 142.433594 141.933594 140.976562 140.761719 139.394531 139.738281 C 137.816406 138.71875 136.148438 137.867188 134.394531 137.183594 C 132.640625 136.503906 130.835938 136.007812 128.980469 135.695312 C 128.742188 135.660156 128.507812 135.671875 128.277344 135.730469 C 128.046875 135.789062 127.832031 135.886719 127.640625 136.027344 C 127.445312 136.167969 127.285156 136.339844 127.160156 136.542969 C 127.035156 136.746094 126.953125 136.96875 126.914062 137.203125 C 126.875 137.441406 126.878906 137.675781 126.933594 137.90625 C 126.984375 138.140625 127.078125 138.355469 127.214844 138.550781 C 127.351562 138.75 127.523438 138.910156 127.722656 139.042969 C 127.921875 139.171875 128.140625 139.257812 128.375 139.304688 C 131.082031 139.761719 133.632812 140.660156 136.027344 141.996094 C 138.421875 143.332031 140.527344 145.027344 142.339844 147.085938 C 140.816406 147.359375 139.417969 147.9375 138.140625 148.8125 C 136.863281 149.691406 135.824219 150.789062 135.019531 152.113281 C 134.792969 152.53125 134.605469 152.96875 134.460938 153.425781 C 134.316406 153.882812 134.21875 154.347656 134.164062 154.824219 C 134.113281 155.296875 134.105469 155.773438 134.144531 156.25 C 134.1875 156.726562 134.273438 157.195312 134.40625 157.65625 C 134.539062 158.113281 134.714844 158.558594 134.933594 158.980469 C 135.152344 159.40625 135.410156 159.808594 135.707031 160.183594 C 136.003906 160.554688 136.335938 160.898438 136.699219 161.207031 C 137.0625 161.519531 137.453125 161.789062 137.871094 162.023438 C 138.289062 162.257812 138.726562 162.445312 139.179688 162.59375 C 139.632812 162.742188 140.097656 162.84375 140.574219 162.898438 C 141.050781 162.957031 141.523438 162.96875 142 162.929688 C 142.476562 162.894531 142.945312 162.8125 143.40625 162.683594 C 143.867188 162.554688 144.3125 162.382812 144.738281 162.167969 C 145.164062 161.949219 145.566406 161.695312 145.945312 161.402344 C 146.320312 161.105469 146.667969 160.777344 146.980469 160.417969 C 147.292969 160.054688 147.566406 159.667969 147.800781 159.25 C 148.566406 157.777344 148.960938 156.210938 148.992188 154.554688 C 149.46875 155.246094 149.839844 155.992188 150.105469 156.789062 C 150.375 157.589844 150.523438 158.40625 150.558594 159.246094 C 150.59375 160.089844 150.515625 160.917969 150.316406 161.734375 C 150.117188 162.550781 149.808594 163.324219 149.390625 164.058594 C 149.269531 164.265625 149.191406 164.488281 149.15625 164.730469 C 149.125 164.96875 149.136719 165.207031 149.199219 165.441406 C 149.257812 165.675781 149.359375 165.886719 149.507812 166.082031 C 149.652344 166.273438 149.828125 166.433594 150.035156 166.558594 C 150.246094 166.679688 150.46875 166.761719 150.707031 166.792969 C 150.945312 166.828125 151.183594 166.816406 151.417969 166.757812 C 151.652344 166.699219 151.867188 166.597656 152.0625 166.453125 C 152.253906 166.308594 152.414062 166.132812 152.539062 165.925781 C 152.554688 165.898438 152.570312 165.867188 152.585938 165.839844 C 153.417969 164.359375 153.933594 162.773438 154.128906 161.085938 C 154.324219 159.398438 154.1875 157.738281 153.71875 156.105469 Z M 144.609375 157.464844 C 144.375 157.890625 144.070312 158.253906 143.691406 158.558594 C 143.308594 158.859375 142.886719 159.078125 142.421875 159.214844 C 141.953125 159.347656 141.480469 159.390625 141 159.335938 C 140.515625 159.28125 140.0625 159.136719 139.636719 158.902344 C 139.210938 158.667969 138.847656 158.359375 138.546875 157.980469 C 138.242188 157.601562 138.023438 157.179688 137.890625 156.710938 C 137.753906 156.246094 137.714844 155.773438 137.769531 155.289062 C 137.824219 154.808594 137.96875 154.355469 138.203125 153.929688 L 138.21875 153.898438 C 138.757812 153.015625 139.460938 152.289062 140.332031 151.722656 C 141.199219 151.160156 142.148438 150.808594 143.175781 150.675781 C 143.5 150.664062 143.804688 150.738281 144.089844 150.886719 C 145.628906 151.753906 145.714844 155.492188 144.609375 157.472656 Z M 144.609375 157.464844"/></g></svg>