<svg xmlns="http://www.w3.org/2000/svg" width="128" height="93.944" viewBox="0 0 128 93.944">
  <g id="live-streaming" transform="translate(-21.257 0)">
    <path id="Path_19019" data-name="Path 19019" d="M220.425,105.937a19.126,19.126,0,1,0-13.542-5.59A19.106,19.106,0,0,0,220.425,105.937ZM215.6,82.021a6.837,6.837,0,0,1,9.643,0,6.773,6.773,0,0,1,0,9.592,6.839,6.839,0,0,1-9.645,0,6.775,6.775,0,0,1,0-9.592Zm0,0" transform="translate(-135.151 -39.844)" fill="#b7b7b7"/>
    <path id="Path_19020" data-name="Path 19020" d="M300.058,99.956a6.171,6.171,0,0,0,8.729.01,38.129,38.129,0,0,0,0-53.995,6.171,6.171,0,1,0-8.719,8.737,25.787,25.787,0,0,1,0,36.521A6.171,6.171,0,0,0,300.058,99.956Zm0,0" transform="translate(-192.234 -25.995)" fill="#b7b7b7"/>
    <path id="Path_19021" data-name="Path 19021" d="M155.7,99.963a6.171,6.171,0,0,0,8.719-8.737,25.789,25.789,0,0,1,0-36.523,6.171,6.171,0,0,0-8.719-8.737,38.131,38.131,0,0,0,0,54Zm0,0" transform="translate(-101.734 -25.993)" fill="#b7b7b7"/>
    <path id="Path_19026" data-name="Path 19026" d="M349.118,46.975A51.135,51.135,0,0,1,334,83.406a6.171,6.171,0,1,0,8.719,8.737,63.792,63.792,0,0,0,0-90.336A6.171,6.171,0,1,0,334,10.543,51.133,51.133,0,0,1,349.118,46.975Zm0,0" transform="translate(-212.204 -0.002)" fill="#b7b7b7"/>
    <path id="Path_19027" data-name="Path 19027" d="M115.339,93.944A6.171,6.171,0,0,0,119.7,83.4a51.452,51.452,0,0,1,0-72.864A6.171,6.171,0,1,0,110.979,1.8a63.794,63.794,0,0,0,0,90.337A6.154,6.154,0,0,0,115.339,93.944Zm0,0" transform="translate(-70.977 0)" fill="#b7b7b7"/>
  </g>
</svg>
