<svg id="Layer_1" data-name="Layer 1" xmlns="http://www.w3.org/2000/svg" viewBox="0 0 1218.1 1729.12"><path d="M949.71,954.61c1.46-1.31,3.08-2.33,4.12-3.77,9.32-12.9,57.37-88.2,62.32-97.47-.57-4.18-4.09-6-7-8.07A396.46,396.46,0,0,0,905.7,790.15c-40.72-14.48-82.65-22.94-126-23.23-16.55-.12-33.16-.27-49.65.88-44.42,3.1-87.2,13-127.3,33-24.36,12.13-46.35,27.55-65.17,47.3-23.8,25-40.09,54-47.31,87.91-3.72,17.45-5.48,35.1-4,53,1.23,14.68,2.8,29.28,6.84,43.52a176.6,176.6,0,0,0,42.33,74.37c14.87,15.69,31.92,28.62,50.4,39.74a371,371,0,0,0,71.71,32.95c15.65,5.34,31.53,10,47.4,14.67,26.46,7.76,52.93,15.46,78.72,25.31a270.55,270.55,0,0,1,33.5,15.09,113.82,113.82,0,0,1,21.18,14.54,64.78,64.78,0,0,1,21.71,39.44c1.91,12.15,3.11,24.24.7,36.56a69.51,69.51,0,0,1-17.09,34A89.9,89.9,0,0,1,819,1378.14a148.65,148.65,0,0,1-45.17,15,239.19,239.19,0,0,1-75.06.88,331.7,331.7,0,0,1-71.07-18.15,311.09,311.09,0,0,1-72.47-39.43c-4-2.89-7.89-5.82-11.88-8.67a4.46,4.46,0,0,0-5.14.14,20.23,20.23,0,0,0-4.07,3.67q-37.87,42.63-75.69,85.33c-1.21,1.37-2.67,2.82-3.11,4.47s-.18,3.92.79,5a87.57,87.57,0,0,0,9.62,8.52,415.84,415.84,0,0,0,166,79.79c31.17,7.2,62.73,11.17,94.78,10.9,4.28,0,8.57.12,12.85.32a6.45,6.45,0,0,1,5.95,5.89q3.84,27.32,7.59,54.64,4.9,35.5,9.72,71c1.3,9.71,2.33,19.45,3.44,29.19.21,1.86-2.22,5.06-4.11,5.55a32.38,32.38,0,0,1-5.35,1.17c-30.62,2.39-61.29,3.05-91.9.55A675.18,675.18,0,0,1,538.25,1671c-153.09-42.67-301-155.23-380.9-325.78A589.69,589.69,0,0,1,115,1222c-3.83-17.35-7.09-34.78-9.33-52.44-2.77-21.88-6.09-43.7-9.24-65.54s-6.39-43.66-9.59-65.48c-4.18-28.5-8.14-57-12.61-85.49-7.23-46-14.8-92-21.07-138.11-4-29.15-8.66-58.19-13-87.29-.54-3.64-.88-7.3-1.19-11-.49-5.83.73-7.54,6.8-8.58,12.08-2.08,24.17-4.1,36.29-5.87,37.61-5.48,75.24-10.72,112.83-16.25S270,674.66,307.61,669.13s75.23-10.73,112.82-16.27c37-5.46,73.92-11.22,110.9-16.74,20.61-3.07,41.25-5.9,61.88-8.88,1.8-.26,3.83-.38,5.27-1.31a7.79,7.79,0,0,0,3-4.19,13.74,13.74,0,0,0-.1-5.45c-4.26-29.73-8.63-59.44-12.82-89.17-4.26-30.35-8.28-60.73-12.53-91.08s-8.69-60.66-13-91c-2.84-20-5.6-40.06-8.4-60.09-4.58-32.78-9.25-65.54-13.71-98.33-2.89-21.26-5.48-42.55-8.14-63.84a13.07,13.07,0,0,1,.21-5.44c.5-1.59,1.63-3.74,3-4.18a84.77,84.77,0,0,1,14.23-3.43Q602,102.26,653.94,95.06c38.85-5.41,77.72-10.66,116.56-16.15S848.13,67.62,887,62.12c30.34-4.29,60.73-8.23,91.07-12.51,29.74-4.19,59.44-8.65,89.16-12.93,7.89-1.13,15.81-2.06,23.72-3,4.15-.49,7.62,1.71,8.35,5.38,1.09,5.41,2.11,10.84,2.89,16.29q7,49.14,13.89,98.31,6.18,43.68,12.42,87.37,6.79,48.24,13.49,96.5c4.21,30.35,8.29,60.73,12.56,91.07,2.91,20.63,6,41.24,9.12,61.84a608.08,608.08,0,0,1,6.35,84.29c.63,53.61-5,106.49-18.24,158.48Q1116.57,871,1024.55,979.35C990.26,1019.78,951.17,1055,908,1085.7c-4,2.84-8,5.63-12.2,8.22a10.25,10.25,0,0,1-8.84,1.11c-3.48-1.16-6.92-2.47-10.37-3.75q-29.29-10.9-59.49-19c-26.61-7.23-53.15-14.79-78.87-24.82a354,354,0,0,1-33.56-14.93,129.23,129.23,0,0,1-21.39-14.18c-14.18-11.4-21-26.72-22-44.78-1.58-27.24,9.87-47.35,33.15-61a104.43,104.43,0,0,1,29-11.37,179.58,179.58,0,0,1,34.52-5c63.28-2.42,121.16,14.51,174.55,48C938.09,947.65,943.09,952.37,949.71,954.61ZM849.23,411.32a90.7,90.7,0,0,0,33.38-5.57c15.8-5.61,29.68-14.46,42.08-25.68a43.7,43.7,0,0,0,9.77-13.21,138.51,138.51,0,0,0,11.61-34.73c7.24-35.73-6.3-79.28-44.28-103.37-18.13-11.5-38-17-59.46-15.41C815,215.41,791.76,227,771.82,245.54A40,40,0,0,0,763,257.17c-8.52,17.26-13.67,35.3-13.71,54.73C749.13,370.15,797.72,412.62,849.23,411.32ZM360,807.38c-4.89.28-9.8.37-14.66.93a90.65,90.65,0,0,0-10.77,2.22c-19.56,4.65-36.14,14.76-51.06,27.91a45.81,45.81,0,0,0-10.79,14.71,127.11,127.11,0,0,0-11.6,36.65c-7.72,51.38,22,94.73,64,109.79,14,5,28.35,7.67,43.3,5.87,25.83-3.11,48-14,66.94-31.62,3.1-2.89,6.2-6.16,8.12-9.87,13-25.2,18.74-51.47,12.24-79.87C444.76,836.33,400.82,806.7,360,807.38Z"/></svg>