<svg id="Layer_1" data-name="Layer 1" xmlns="http://www.w3.org/2000/svg" viewBox="0 0 4644.32 1859.51"><path d="M949.71,957.68c1.46-1.31,3.08-2.33,4.12-3.77,9.32-12.9,57.37-88.2,62.32-97.47-.57-4.19-4.09-6-7-8.07A396.79,396.79,0,0,0,905.7,793.21c-40.72-14.47-82.65-22.93-126-23.23-16.55-.11-33.16-.26-49.65.89-44.42,3.1-87.2,13-127.3,33-24.36,12.14-46.35,27.56-65.17,47.31-23.8,25-40.09,54-47.31,87.91-3.72,17.44-5.48,35.09-4,53,1.23,14.68,2.8,29.29,6.84,43.52A176.57,176.57,0,0,0,535.47,1110c14.87,15.68,31.92,28.61,50.4,39.74a371,371,0,0,0,71.71,33c15.65,5.34,31.53,10,47.4,14.66,26.46,7.77,52.93,15.47,78.72,25.32a272,272,0,0,1,33.5,15.08,113.39,113.39,0,0,1,21.18,14.55,64.76,64.76,0,0,1,21.71,39.44c1.91,12.15,3.11,24.23.7,36.56a69.55,69.55,0,0,1-17.09,34A90.09,90.09,0,0,1,819,1381.21a149.2,149.2,0,0,1-45.17,15,238.89,238.89,0,0,1-75.06.87,331.11,331.11,0,0,1-71.07-18.15,310.35,310.35,0,0,1-72.47-39.43c-4-2.88-7.89-5.82-11.88-8.66a4.46,4.46,0,0,0-5.14.14,20.23,20.23,0,0,0-4.07,3.67q-37.87,42.63-75.69,85.33c-1.21,1.36-2.67,2.81-3.11,4.46s-.18,3.93.79,5a88.62,88.62,0,0,0,9.62,8.52,415.68,415.68,0,0,0,166,79.78c31.17,7.2,62.73,11.18,94.78,10.91,4.28,0,8.57.12,12.85.31a6.47,6.47,0,0,1,5.95,5.9q3.84,27.3,7.59,54.63,4.9,35.52,9.72,71c1.3,9.71,2.33,19.46,3.44,29.2.21,1.86-2.22,5.06-4.11,5.54a31.43,31.43,0,0,1-5.35,1.18c-30.62,2.39-61.29,3-91.9.55a675.18,675.18,0,0,1-126.44-22.92c-153.09-42.67-301-155.23-380.9-325.78A589.89,589.89,0,0,1,115,1225.11c-3.83-17.35-7.09-34.79-9.33-52.44-2.77-21.89-6.09-43.7-9.24-65.54s-6.39-43.66-9.59-65.49c-4.18-28.5-8.14-57-12.61-85.48-7.23-46-14.8-92-21.07-138.11-4-29.15-8.66-58.2-13-87.29-.54-3.64-.88-7.31-1.19-11-.49-5.83.73-7.54,6.8-8.59,12.08-2.08,24.17-4.09,36.29-5.86,37.61-5.48,75.24-10.73,112.83-16.25S270,677.72,307.61,672.2s75.23-10.73,112.82-16.28c37-5.45,73.92-11.21,110.9-16.73,20.61-3.07,41.25-5.91,61.88-8.88,1.8-.27,3.83-.38,5.27-1.31a7.79,7.79,0,0,0,3-4.19,13.74,13.74,0,0,0-.1-5.45c-4.26-29.73-8.63-59.44-12.82-89.18-4.26-30.34-8.28-60.72-12.53-91.07s-8.69-60.67-13-91c-2.84-20-5.6-40.06-8.4-60.09-4.58-32.77-9.25-65.54-13.71-98.33-2.89-21.25-5.48-42.55-8.14-63.83a13.13,13.13,0,0,1,.21-5.45c.5-1.59,1.63-3.73,3-4.17a85.79,85.79,0,0,1,14.23-3.44Q602,105.32,653.94,98.13C692.79,92.71,731.66,87.47,770.5,82S848.13,70.69,887,65.19C917.31,60.89,947.7,57,978,52.68c29.74-4.2,59.44-8.66,89.16-12.93,7.89-1.14,15.81-2.06,23.72-3,4.15-.48,7.62,1.72,8.35,5.39,1.09,5.4,2.11,10.83,2.89,16.29q7,49.14,13.89,98.3,6.18,43.7,12.42,87.38,6.79,48.24,13.49,96.5c4.21,30.35,8.29,60.72,12.56,91.07,2.91,20.63,6,41.24,9.12,61.84a608.08,608.08,0,0,1,6.35,84.29c.63,53.61-5,106.49-18.24,158.47Q1116.57,874,1024.55,982.42A631.62,631.62,0,0,1,908,1088.77c-4,2.84-8,5.63-12.2,8.22a10.25,10.25,0,0,1-8.84,1.11c-3.48-1.17-6.92-2.47-10.37-3.75q-29.29-10.9-59.49-19c-26.61-7.23-53.15-14.8-78.87-24.82a356.57,356.57,0,0,1-33.56-14.93,128.66,128.66,0,0,1-21.39-14.19c-14.18-11.4-21-26.71-22-44.77-1.58-27.24,9.87-47.35,33.15-61a104.43,104.43,0,0,1,29-11.37,179.59,179.59,0,0,1,34.52-5.05c63.28-2.41,121.16,14.52,174.55,48C938.09,950.71,943.09,955.44,949.71,957.68ZM849.23,414.39a90.7,90.7,0,0,0,33.38-5.57c15.8-5.62,29.68-14.46,42.08-25.68a43.82,43.82,0,0,0,9.77-13.21,138.45,138.45,0,0,0,11.61-34.74c7.24-35.72-6.3-79.27-44.28-103.36-18.13-11.5-38-17-59.46-15.41-27.31,2.06-50.57,13.65-70.51,32.18A40.15,40.15,0,0,0,763,260.23c-8.52,17.26-13.67,35.3-13.71,54.73C749.13,373.21,797.72,415.68,849.23,414.39ZM360,810.44c-4.89.29-9.8.38-14.66.93a92.68,92.68,0,0,0-10.77,2.22c-19.56,4.66-36.14,14.76-51.06,27.92a45.66,45.66,0,0,0-10.79,14.7,127.18,127.18,0,0,0-11.6,36.66c-7.72,51.38,22,94.73,64,109.79,14,5,28.35,7.67,43.3,5.87,25.83-3.11,48-14,66.94-31.63,3.1-2.89,6.2-6.15,8.12-9.86,13-25.2,18.74-51.47,12.24-79.87C444.76,839.39,400.82,809.76,360,810.44Z"/><path d="M2212.23,1300.47c-3.34-2-6.72-4.1-10.16-6.11a234.8,234.8,0,0,1-35.76-25.5c-29.13-25.43-47.62-57-54.82-95.1a239.92,239.92,0,0,1-2.77-71.62c3-26.81,10.32-52.21,23-76,15.28-28.81,36.64-52.24,63.25-71,24.62-17.34,51.74-29.25,80.75-36.93A326.06,326.06,0,0,1,2360,907.39c17.33,0,34.67.35,52-.31,44.1-1.69,87.57-7.57,129.84-20.84a494.52,494.52,0,0,0,69.1-27.92c9.18-4.49,18.21-9.26,27.32-13.89,2.37-1.2,4.77-2.36,7.18-3.48,1.63-.77,4,0,4.55,1.5.93,2.49,1.91,5,2.7,7.51q15.54,49.57,31,99.15c.53,1.69.94,3.41,1.35,5.14a4,4,0,0,1-2.53,4.16c-1.64.67-3.26,1.44-4.95,2a374.61,374.61,0,0,1-50.67,11.21c-32.15,5-64.58,5.72-97,6.9-4,.15-7.95.44-11.92.71-.35,0-1,.45-1,.64.07.78.09,1.93.57,2.22,3,1.87,6.12,3.61,9.25,5.27a226.31,226.31,0,0,1,33.64,21.5c15.93,12.41,29.51,26.94,39.59,44.55,10.31,18,16,37.42,18.62,57.94a206.92,206.92,0,0,1-.62,55.81c-6,41.23-22.95,77.2-52.33,107.05-19.92,20.25-43.32,35.31-69.37,46.33-22.61,9.57-46.18,15.65-70.47,19.27-15.43,2.3-30.94,3.14-46.47,3.76a257,257,0,0,1-75.26-8,10,10,0,0,0-9.79,2.24c-14.47,12.31-21.81,27.72-20.34,46.94.8,10.4,5.57,18.58,14,24.64,7.35,5.3,15.76,8.05,24.5,10a142.24,142.24,0,0,0,30.45,3l49.33,0c14.22,0,28.44.18,42.66,0a367.52,367.52,0,0,1,49.21,2.7c29.29,3.48,57.57,10.83,84.24,23.71a192.63,192.63,0,0,1,46.4,31c24,21.87,40.15,48.37,47.67,80,4.79,20.13,5.23,40.48,2.86,60.92a165.78,165.78,0,0,1-7.85,35,157.35,157.35,0,0,1-35.88,58.64,198.13,198.13,0,0,1-47.72,36,294,294,0,0,1-65.51,25.88c-26.64,7.19-53.76,11.59-81.24,14.26-39.05,3.8-78.14,3.56-117.2,1.75-34.65-1.61-69-6.07-102.53-15.61-18.43-5.26-36.2-12.15-52.81-21.82-15.89-9.25-29.9-20.73-41.41-35.17a141.58,141.58,0,0,1-24.84-48.29,215.39,215.39,0,0,1-8.82-64.44,12.27,12.27,0,0,1,.61-3.92,3,3,0,0,1,1.82-1.79,55.66,55.66,0,0,1,8-.6q56,0,112,0a43.81,43.81,0,0,1,7.94.55,4.14,4.14,0,0,1,2.66,2.47,26.36,26.36,0,0,1,.69,6.59c0,6.72,1.31,13.27,2.76,19.76,4,17.88,13.85,31.46,30,40.42a102.24,102.24,0,0,0,26,10,218.68,218.68,0,0,0,26.14,5c13.68,1.55,27.37,3.23,41.18,3.18,15.55-.07,31.12.3,46.65-.19a308.52,308.52,0,0,0,60.73-7.6,155.69,155.69,0,0,0,25.3-8.22,88.72,88.72,0,0,0,19.58-11.28c12.86-9.92,20.79-22.79,23.53-38.92a81.41,81.41,0,0,0,.19-27.81c-3.14-18.14-12.53-32-27.66-42.18a94.43,94.43,0,0,0-30.48-13,179.47,179.47,0,0,0-43.55-5.18q-43.34.08-86.66,0c-9.33,0-18.67.08-28-.4-21.79-1.11-43.31-4.15-64.28-10.42a166.57,166.57,0,0,1-37.83-16.3,112.74,112.74,0,0,1-28.69-23.62c-21.19-24.95-28.85-53.61-22.64-85.73,7.37-38.08,27.46-67.89,59.41-89.78,2.19-1.5,4.4-3,6.45-4.66C2211.9,1302.75,2211.89,1301.62,2212.23,1300.47Zm263.5-179.2c-.27-4.49-.53-12.93-1.38-21.32a123.36,123.36,0,0,0-9.15-36q-14.6-34.32-49.58-47.35a122.71,122.71,0,0,0-28.43-6.79c-17.29-2.1-34.61-2.26-51.66,1.86-28.31,6.84-49.71,22.86-63.47,48.69a123.18,123.18,0,0,0-13.37,44.38,190.61,190.61,0,0,0,.09,43.89,129.49,129.49,0,0,0,12.5,43.27c12.84,25.69,33,42.76,60.65,50.25a132.35,132.35,0,0,0,77.47-2c22.47-7.44,39.35-21.93,50.66-42.78a118.92,118.92,0,0,0,9.09-22.13C2474.11,1158.93,2475.51,1142.16,2475.73,1121.27Z"/><path d="M4057.86,1357.71q0-202.57,0-405.15c0-21.92-2.9-19,19-19.09,31.1-.16,62.2-.06,93.3,0,4,0,8,.25,11.95.46a4.41,4.41,0,0,1,3.51,3.49c.21,1.32.45,2.63.59,4q3,28.49,6,57a3.18,3.18,0,0,0,.19,1.3,11.51,11.51,0,0,0,2.28,2.94c.34.27,1.75-.32,2.26-.88,2.39-2.63,4.63-5.4,6.93-8.1a219.13,219.13,0,0,1,133-74.78,201.41,201.41,0,0,1,53.13-1.74c15.95,1.67,31.68,4,47.09,8.53,39.76,11.66,71.8,34.28,96.43,67.54,14.66,19.8,25.49,41.62,33.79,64.71,9.36,26,15.32,52.82,19.26,80.14,6.43,44.6,7.65,89.41,4.86,134.28-3,47.72-12.47,94.12-31.58,138.25-11.2,25.85-25.5,49.77-44.12,71-31.57,36-70.87,58.67-117.94,67.55a178.09,178.09,0,0,1-33.08,3.61c-6.22,0-12.44.23-18.66.15-50.24-.66-93.5-18.55-130.12-52.79-2.92-2.73-5.68-5.64-8.62-8.33a2.58,2.58,0,0,0-2.36-.22,2.82,2.82,0,0,0-1.35,2q-.3,6.64-.29,13.31,0,76,0,151.93c0,5.33-.05,10.67-.31,16-2.21,46.88-37.45,91.69-88.36,102.28-11.35,2.36-22.92,2.74-34.33,4.49-6.13.94-12.36,1.23-18.55,1.79a3.27,3.27,0,0,1-3.53-3.12c-.18-3.54-.37-7.09-.38-10.64q0-31.32,0-62.64Zm145.48-114.48v54.63c0,24.43.1,48.86-.06,73.29a23.09,23.09,0,0,0,4.22,13.69,127.67,127.67,0,0,0,53.26,45c22.85,10.52,46.94,13.33,71.61,10.17,30.75-3.94,55-19.07,72.49-44.76a146.45,146.45,0,0,0,11.76-20.86,214,214,0,0,0,15.07-46.79,372.41,372.41,0,0,0,8.06-71.37c.24-18.65.3-37.32-.26-56a403.45,403.45,0,0,0-8.15-70,212.62,212.62,0,0,0-12.95-41.91,130.53,130.53,0,0,0-13.65-24.36c-13.27-18.38-30.85-30.43-53-35.49-4.75-1.08-9.64-1.51-14.47-2.24-13.41-2-26.58-.43-39.6,2.79-18.46,4.57-34.57,13.74-49.19,25.67a194.55,194.55,0,0,0-38.17,42.46c-8.24,12.21-6.9,10.31-6.92,22.16Q4203.27,1181.26,4203.34,1243.23Z"/><path d="M1916.47,1468.07c-3.54,1.42-4.85,4.39-6.66,6.83a201.27,201.27,0,0,1-29.77,32.24,197.25,197.25,0,0,1-83.44,42.61,261,261,0,0,1-89.9,6.33c-20-2.12-39.51-5.89-58.26-13.12-58.29-22.47-94.67-64.4-109.15-124.9-8.51-35.56-7.83-71.34,1.38-106.84,10.59-40.77,33.34-73.12,67.51-97.58a229.41,229.41,0,0,1,54.16-28.27c21.28-7.91,43.25-13.21,65.64-16.93,28.58-4.75,57.38-6.2,86.27-6.39,21.32-.13,42.64,0,64,0,13.13,0,12.43-.2,12.44-12.48,0-11.1,0-22.21-.18-33.31a139.64,139.64,0,0,0-5.07-34.17c-.8-3-1.76-6-2.83-8.87-7.68-20.78-21.94-35.11-42.53-43.22a125.9,125.9,0,0,0-30.93-7.67c-7.93-1-15.93-1.41-23.91-2a65.9,65.9,0,0,0-9.32-.11c-19.92,1.43-39.83,2.94-59.61,6.07A564.83,564.83,0,0,0,1620.8,1050a26.31,26.31,0,0,1-5.13,1.32,3.23,3.23,0,0,1-3.35-1.66,24.28,24.28,0,0,1-1.68-3.58q-15.44-44.67-30.81-89.37a5.27,5.27,0,0,1-.62-2.54c.3-1.21.79-2.85,1.71-3.35a69.72,69.72,0,0,1,8.58-3.61,629.59,629.59,0,0,1,110.31-30.08c40.36-7.12,81-11,122-9.42,28.47,1.1,56.62,4.81,84,13.08a215.73,215.73,0,0,1,39.4,16.06q53.88,28.83,76.16,85.73c6.83,17.46,10.94,35.57,13.5,54.12,2.19,15.91,2.54,31.86,2.54,47.85q0,125.26,0,250.51c0,10.24.37,20.43,2.43,30.49.71,3.47,1.55,6.93,2.56,10.32a54.83,54.83,0,0,0,26.82,33.37c1.16.65,2.31,1.34,3.51,1.91,12.18,5.82,11.32,4.34,7,17.93q-11.84,37.44-23.85,74.84a62.65,62.65,0,0,1-3.32,8.68,4,4,0,0,1-3.19,1.85c-5.74-.44-11.47-1-17.17-1.89a187.72,187.72,0,0,1-41.15-10.71c-27.9-10.93-49.44-29.31-64.41-55.3-2.43-4.23-4.52-8.65-6.84-12.95C1918.75,1471.71,1917.56,1469.88,1916.47,1468.07Zm-25.81-154.17h0q0-26,0-52c0-3.1-.24-6.2-.43-9.29a4.06,4.06,0,0,0-3.61-3.27c-3.1-.15-6.2-.31-9.3-.32-12.45,0-24.89,0-37.33,0a416.91,416.91,0,0,0-45.24,2,213.54,213.54,0,0,0-34,6.23,122.82,122.82,0,0,0-34.14,14.68c-17.95,11.43-30.19,27.18-36.47,47.57-6,19.51-6.28,39.35-3.52,59.34a95.17,95.17,0,0,0,5.71,21.86c9.49,24.13,27,39,52,45.42,10.89,2.8,21.94,3.2,33.07,3,31.61-.74,58.78-12.22,81.7-33.9,11.06-10.44,20.09-22.5,28.12-35.36a22.52,22.52,0,0,0,3.56-12.54C1890.58,1349.44,1890.66,1331.67,1890.66,1313.9Z"/><path d="M3189.16,1474.05c-3,4.82-6.91,7.14-10.38,9.82a355.74,355.74,0,0,1-226.18,73.51c-35.24-1-69.85-6-103.31-17.77q-90-31.6-136.9-114.5c-15.2-26.87-25.59-55.63-32.42-85.67a444.46,444.46,0,0,1-10.9-93.8,510.64,510.64,0,0,1,2.95-65.2c5-43.08,15.43-84.7,34.26-124,14.14-29.51,32.32-56.18,55.77-79.11,35-34.21,76.74-55.4,124.67-64.81A301.09,301.09,0,0,1,2965,908c28.47,1.88,56.35,7,83.23,17.09q74.45,27.82,116.46,95.2c16.18,25.82,27.34,53.79,35,83.2a417,417,0,0,1,11.4,66.9c1.32,14.63,1.88,29.24,2.16,43.91.36,19.6-1.87,39-3.05,58.55-.26,4.4-2.73,5.17-6.21,5.27-4.44.13-8.89.11-13.33.11q-174.64,0-349.3,0c-4.44,0-8.88.13-13.31.29-2.3.08-3.82,2-3.73,4.54,0,.44,0,.89,0,1.33,2.62,23.9,6.66,47.48,15.12,70.13a173,173,0,0,0,13,27.69c18.69,31.68,46.32,50.75,82.12,58.44,14,3,28.17,3.87,42.4,3.83a222.1,222.1,0,0,0,95.35-21.73,360.86,360.86,0,0,0,42.93-24.15c3.35-2.19,6.69-4.37,10.07-6.51a3.82,3.82,0,0,1,4.83.48c1.39,1.73,2.78,3.46,4.09,5.26q25.44,35.06,50.85,70.14C3186.36,1469.78,3187.54,1471.65,3189.16,1474.05Zm-244.24-292.21q52.57,0,105.14,0c4,0,8-.26,11.94-.42a3.05,3.05,0,0,0,2.77-2.49,23.82,23.82,0,0,0,.71-6.57c-.35-8.86-.91-17.71-1.31-26.57a214.24,214.24,0,0,0-6.16-40.72c-3.76-15.58-9.31-30.51-17.94-44.17-15-23.74-36.25-38.36-63.63-44.41a143.84,143.84,0,0,0-49-1.94c-26.69,3.29-48.87,15.36-65.37,36.92a162.66,162.66,0,0,0-11.57,17.82c-4.65,8.08-8.05,16.76-11.12,25.57-9,25.75-12.77,52.48-15.27,79.46a29.33,29.33,0,0,0,.14,4,3.81,3.81,0,0,0,3.54,3.26c4,.15,8,.3,12,.3Q2892.35,1181.86,2944.92,1181.84Z"/><path d="M3950.6,1235.41q0,141.24,0,282.5c0,20.27,1.51,18-17.66,18.06-31.1.09-62.19,0-93.29,0-4,0-8-.19-12-.37a4.24,4.24,0,0,1-3.62-3.36c-.08-.44-.22-.87-.26-1.3-.91-8.84-1.7-17.68-2.74-26.5-1.82-15.43-2.24-31-5-46.34-.1-.55-1.11-1-1.79-1.35-.26-.13-.86.16-1.15.43a13.81,13.81,0,0,0-1.72,2c-1.51,2.2-2.91,4.47-4.46,6.64q-47.4,66.44-127.27,83.27a150.26,150.26,0,0,1-33.06,3.71c-9.77-.12-19.56.13-29.31-.39A180.75,180.75,0,0,1,3559,1540q-44.17-17.81-68.64-58.62c-10.17-16.9-16.9-35.17-21.16-54.37a230.07,230.07,0,0,1-5.82-46.17c-.12-7.11-.31-14.22-.31-21.32q0-203.88,0-407.76c0-4.88.23-9.76.4-14.63a3.93,3.93,0,0,1,3.51-3.31c2.66-.15,5.32-.33,8-.33q60.63,0,121.27,0c12.73,0,12.45-.18,12.47,12.42q0,21.31,0,42.64,0,175.23,0,350.46c0,12,.66,24,1.7,35.92a111.9,111.9,0,0,0,5.22,24.7c.68,2.11,1.48,4.18,2.32,6.24,8.07,19.83,23.09,31,43.86,34.67,29.83,5.27,57.36-.81,82.63-17.38a157.12,157.12,0,0,0,23.77-19.27c12.76-12.5,23.46-26.63,33.19-41.56a20.37,20.37,0,0,0,3.48-12.55c-.17-3.54,0-7.1,0-10.65q0-193.23,0-386.45c0-22-2.93-19.06,18.92-19.15,36-.15,72,0,107.95,0,3.11,0,6.22,0,9.33,0,8.58.07,9.52.46,9.52,10.14,0,2.66,0,5.33,0,8v283.84Z"/><path d="M1486,1415.66c1,.6,2,.85,2.5,1.48a50.79,50.79,0,0,1,3.54,5.6q21.62,39.81,43.18,79.64a32.56,32.56,0,0,1,2.83,6,4.18,4.18,0,0,1-.84,3.57,40.88,40.88,0,0,1-6.45,4.66,267.73,267.73,0,0,1-95.18,36.48c-18.44,3.23-37,5.05-55.69,4.32-24.5-1-48.63-4.13-71.91-12.43q-61.73-22-88.36-81.7a205.53,205.53,0,0,1-14.34-47,319.21,319.21,0,0,1-5.3-58.3q.09-84,0-167.94,0-72.64,0-145.28c0-12.73.35-12.74-12.18-12.74h-69.31c-3.11,0-6.22,0-9.33-.12s-5.16-1.88-5.34-4.68c-.09-1.33-.16-2.67-.16-4q0-45.32,0-90.63a21,21,0,0,1,.74-5.22,2.77,2.77,0,0,1,1.69-1.76,44.34,44.34,0,0,1,7.84-1c17.77-.08,35.55,0,53.32,0,7.56,0,15.11,0,22.66,0,1.78,0,3.56-.11,5.33-.23a4.73,4.73,0,0,0,4.42-4.1c.14-2.66.27-5.33.27-8q0-42.65,0-85.3c0-9.78,0-19.55,0-29.32,0-1.77.14-3.55.27-5.31a4.53,4.53,0,0,1,3.15-3.85c1.3-.28,2.6-.59,3.92-.75q43.65-5.18,87.32-10.31,23.16-2.73,46.32-5.4c1.32-.15,2.66-.14,4-.19,1.51,0,3.71,1.66,3.77,3.05.17,4,.37,8,.38,12q0,60.66,0,121.3c0,4,.12,8,.26,12a4.52,4.52,0,0,0,4.29,4.2c4.44.16,8.88.27,13.32.27q54.66,0,109.31,0c16.75,0,15.82-.25,13.71,15.21-3.85,28.15-8.15,56.25-12.26,84.37-.19,1.32-.37,2.64-.63,3.95a4.81,4.81,0,0,1-4.86,3.7c-3.55.14-7.11.2-10.66.2-32,0-64,0-96,0-18.28,0-16.48-1.76-16.49,16.35q-.06,149.94,0,299.89c0,12.9.14,25.76,2.76,38.48a90.64,90.64,0,0,0,6.94,21.48c6.61,13.58,17.28,22.45,31.81,26.32a82.23,82.23,0,0,0,29.05,2.77c20.57-2,40.2-7.08,58.28-17.38C1480.62,1418.4,1483.39,1417,1486,1415.66Z"/></svg>