<svg xmlns="http://www.w3.org/2000/svg" xmlns:xlink="http://www.w3.org/1999/xlink" viewBox="0 0 76.34 76.34"><defs><style>.cls-1{fill:url(#linear-gradient);}.cls-2{fill:url(#linear-gradient-2);}.cls-3{fill:url(#linear-gradient-3);}.cls-4{fill:#fff;}</style><linearGradient id="linear-gradient" x1="1342.69" y1="3.97" x2="1253.66" y2="85.09" gradientTransform="matrix(-1, 0, 0, 1, 1343.33, 0)" gradientUnits="userSpaceOnUse"><stop offset="0" stop-color="#e36689"/><stop offset="0.53" stop-color="#ef4571"/><stop offset="1" stop-color="#992327"/></linearGradient><linearGradient id="linear-gradient-2" x1="1286.29" y1="59.23" x2="1342.73" y2="-4.68" gradientTransform="matrix(-1, 0, 0, 1, 1343.33, 0)" gradientUnits="userSpaceOnUse"><stop offset="0" stop-color="#ffe7ad" stop-opacity="0.2"/><stop offset="0.1" stop-color="#ffe7ad" stop-opacity="0.23"/><stop offset="0.25" stop-color="#ffe7ad" stop-opacity="0.3"/><stop offset="0.42" stop-color="#ffe7ad" stop-opacity="0.42"/><stop offset="0.62" stop-color="#ffe7ad" stop-opacity="0.59"/><stop offset="0.83" stop-color="#ffe7ad" stop-opacity="0.8"/><stop offset="1" stop-color="#ffe7ad"/></linearGradient><linearGradient id="linear-gradient-3" x1="869.05" y1="185.62" x2="917.58" y2="130.66" gradientTransform="matrix(-0.81, -0.58, -0.58, 0.81, 854.97, 422.74)" xlink:href="#linear-gradient-2"/></defs><g id="Layer_1" data-name="Layer 1"><path class="cls-1" d="M0,0V38.17A38.17,38.17,0,1,0,41.77.17C40.58.06,39.37,0,38.17,0Z"/><path class="cls-2" d="M0,0V6.05L27.58,60.23a17.93,17.93,0,0,0,17.89,10.4l.38,0a26,26,0,0,0,23.71-25.9A17.92,17.92,0,0,0,59.39,28.52L5.72,0Z"/><path class="cls-3" d="M26.67,0,17.48,55A16,16,0,0,0,25.1,71.78l.3.17a23.22,23.22,0,0,0,30.69-6.56,16,16,0,0,0,1-17L30.46,0Z"/><path class="cls-4" d="M51.59,20.23a9.78,9.78,0,0,0-4.53-3.61,16,16,0,0,0-6-1.15,15.29,15.29,0,0,0-3.6.43,9.54,9.54,0,0,0-3.14,1.36,7,7,0,0,0-2.25,2.41,7,7,0,0,0-.85,3.52,5.51,5.51,0,0,0,2.12,4.67,20.77,20.77,0,0,0,5.26,2.8c2.1.79,4.39,1.56,6.88,2.29A28.25,28.25,0,0,1,52.36,36a17.05,17.05,0,0,1,5.26,5.17,15.42,15.42,0,0,1,2.12,8.57A18.77,18.77,0,0,1,58,58.19a17.13,17.13,0,0,1-4.8,6,20.51,20.51,0,0,1-7,3.57,29.3,29.3,0,0,1-8.4,1.18A31.6,31.6,0,0,1,27,67.06a20.75,20.75,0,0,1-8.91-6.28L26.14,53a13.44,13.44,0,0,0,5.13,4.62A14.45,14.45,0,0,0,38,59.25a14.09,14.09,0,0,0,3.73-.51,11.51,11.51,0,0,0,3.4-1.52,8.12,8.12,0,0,0,2.46-2.59A7,7,0,0,0,48.54,51a6.3,6.3,0,0,0-2.12-5.09,18.8,18.8,0,0,0-5.26-3c-2.1-.82-4.38-1.6-6.87-2.33a29.4,29.4,0,0,1-6.88-3,16.82,16.82,0,0,1-5.26-5.1A15.18,15.18,0,0,1,20,24a16.21,16.21,0,0,1,1.91-8.06,17.31,17.31,0,0,1,5-5.64A21.86,21.86,0,0,1,34,6.9a30.62,30.62,0,0,1,8.15-1.1,29.74,29.74,0,0,1,9.2,1.44,21.56,21.56,0,0,1,8,4.75Z"/></g></svg>