<svg xmlns="http://www.w3.org/2000/svg" xmlns:xlink="http://www.w3.org/1999/xlink" viewBox="0 0 334.69 87.97"><defs><style>.cls-1{fill:url(#linear-gradient);}.cls-2{fill:url(#linear-gradient-2);}.cls-3{fill:url(#linear-gradient-3);}.cls-4{fill:#414042;}.cls-5{fill:#fff;}</style><linearGradient id="linear-gradient" x1="1342.69" y1="3.97" x2="1253.66" y2="85.09" gradientTransform="matrix(-1, 0, 0, 1, 1343.33, 0)" gradientUnits="userSpaceOnUse"><stop offset="0" stop-color="#e36689"/><stop offset="0.53" stop-color="#ef4571"/><stop offset="1" stop-color="#992327"/></linearGradient><linearGradient id="linear-gradient-2" x1="1286.29" y1="59.23" x2="1342.73" y2="-4.68" gradientTransform="matrix(-1, 0, 0, 1, 1343.33, 0)" gradientUnits="userSpaceOnUse"><stop offset="0" stop-color="#ffe7ad" stop-opacity="0.2"/><stop offset="0.1" stop-color="#ffe7ad" stop-opacity="0.23"/><stop offset="0.25" stop-color="#ffe7ad" stop-opacity="0.3"/><stop offset="0.42" stop-color="#ffe7ad" stop-opacity="0.42"/><stop offset="0.62" stop-color="#ffe7ad" stop-opacity="0.59"/><stop offset="0.83" stop-color="#ffe7ad" stop-opacity="0.8"/><stop offset="1" stop-color="#ffe7ad"/></linearGradient><linearGradient id="linear-gradient-3" x1="928.68" y1="204.69" x2="977.21" y2="149.72" gradientTransform="matrix(-0.81, -0.58, -0.58, 0.81, 914.59, 441.81)" xlink:href="#linear-gradient-2"/></defs><g id="Layer_1" data-name="Layer 1"><path class="cls-1" d="M0,0V38.17A38.17,38.17,0,1,0,41.77.17C40.58.06,39.37,0,38.17,0Z"/><path class="cls-2" d="M0,0V6.05L27.58,60.23a17.93,17.93,0,0,0,17.89,10.4l.38,0a26,26,0,0,0,23.71-25.9A17.92,17.92,0,0,0,59.39,28.52L5.72,0Z"/><path class="cls-3" d="M26.67,0,17.48,55A16,16,0,0,0,25.1,71.78l.3.17a23.22,23.22,0,0,0,30.69-6.56,16,16,0,0,0,1-17L30.46,0Z"/><path class="cls-4" d="M77.53,34.8V26h3.71v-12H91.57V26h11.36V34.8H91.57V52.87a9,9,0,0,0,1.16,4.9c.77,1.2,2.31,1.81,4.6,1.81a15.94,15.94,0,0,0,3-.31,6.24,6.24,0,0,0,2.59-1V67a13.59,13.59,0,0,1-4,1.07,33.71,33.71,0,0,1-4.18.3,21.19,21.19,0,0,1-6.75-.9,8.89,8.89,0,0,1-4.13-2.75,10.51,10.51,0,0,1-2.07-4.61,32.34,32.34,0,0,1-.56-6.36V34.8Z"/><path class="cls-4" d="M136.82,61.64h-.25a13.38,13.38,0,0,1-5.68,5.12,17.87,17.87,0,0,1-7.58,1.59,20.25,20.25,0,0,1-5.54-.77A15.08,15.08,0,0,1,113,65.26a12,12,0,0,1-3.4-3.88A11,11,0,0,1,108.26,56a12.55,12.55,0,0,1,1.2-5.72,11.89,11.89,0,0,1,3.23-4,16.35,16.35,0,0,1,4.69-2.53,30.72,30.72,0,0,1,5.55-1.42,48.88,48.88,0,0,1,5.81-.61c1.94-.08,3.78-.13,5.5-.13h2.58V40.48a6.73,6.73,0,0,0-2.66-5.81,11.31,11.31,0,0,0-6.8-1.94,16.05,16.05,0,0,0-6.11,1.16,15.66,15.66,0,0,0-4.9,3.14l-5.42-5.42a19.94,19.94,0,0,1,8-5.07A29.71,29.71,0,0,1,128.48,25a24,24,0,0,1,7.4,1,16.44,16.44,0,0,1,5,2.54,11.19,11.19,0,0,1,3,3.57,16.73,16.73,0,0,1,1.55,4.08,23.14,23.14,0,0,1,.56,4c.06,1.29.08,2.42.08,3.39V67.32h-9.29Zm-.6-12.82h-2.15c-1.43,0-3,.06-4.82.17a25.66,25.66,0,0,0-5,.82,11.51,11.51,0,0,0-4,1.89,4.16,4.16,0,0,0-1.64,3.49,4.41,4.41,0,0,0,.65,2.45,5.84,5.84,0,0,0,1.68,1.68,7,7,0,0,0,2.32,1,11.36,11.36,0,0,0,2.58.3q5.34,0,7.87-2.54a9.37,9.37,0,0,0,2.54-6.93Z"/><path class="cls-4" d="M195.68,26v37.6a34.52,34.52,0,0,1-1.38,10.11,19.67,19.67,0,0,1-4.25,7.66,19.34,19.34,0,0,1-7.28,4.86A28.59,28.59,0,0,1,172.36,88a40.06,40.06,0,0,1-10.92-1.46,24.41,24.41,0,0,1-9.55-5.34l6.19-8.43a25.46,25.46,0,0,0,6.45,4.39,18.36,18.36,0,0,0,7.75,1.55,16.53,16.53,0,0,0,6.23-1,10,10,0,0,0,4.05-2.84,10.86,10.86,0,0,0,2.15-4.34,22.89,22.89,0,0,0,.64-5.64v-3h-.17a13.58,13.58,0,0,1-5.93,4.52,20,20,0,0,1-7.58,1.51,20.6,20.6,0,0,1-8.43-1.68,20.18,20.18,0,0,1-6.49-4.52,19.68,19.68,0,0,1-4.18-6.71,23.27,23.27,0,0,1-1.46-8.26,25.71,25.71,0,0,1,1.38-8.52,19.89,19.89,0,0,1,4-6.88,19.27,19.27,0,0,1,6.41-4.6A20.72,20.72,0,0,1,171.5,25a19.51,19.51,0,0,1,8.18,1.72,13.27,13.27,0,0,1,6,5.51h.17V26Zm-22,8.26a13.28,13.28,0,0,0-5,.9,11.46,11.46,0,0,0-3.82,2.5,11.1,11.1,0,0,0-2.5,3.87,13.6,13.6,0,0,0-.9,5,11.9,11.9,0,0,0,.9,4.65A11.64,11.64,0,0,0,164.88,55a12,12,0,0,0,3.87,2.58,12.26,12.26,0,0,0,4.82.94,13.27,13.27,0,0,0,5.12-.94,11.78,11.78,0,0,0,3.87-2.54A11,11,0,0,0,185,51.23a13.39,13.39,0,0,0,.86-4.82,12,12,0,0,0-3.27-8.77Q179.33,34.28,173.65,34.28Z"/><path class="cls-4" d="M211,50.28a10.5,10.5,0,0,0,3.62,7.23,11.3,11.3,0,0,0,7.48,2.58,12.35,12.35,0,0,0,6.5-1.59,17.9,17.9,0,0,0,4.6-4l7.4,5.59a20.93,20.93,0,0,1-8.09,6.37,23.84,23.84,0,0,1-9.37,1.89,24.62,24.62,0,0,1-8.78-1.55,20.51,20.51,0,0,1-11.92-11.22,22,22,0,0,1-1.76-8.91,21.89,21.89,0,0,1,1.76-8.9,20.56,20.56,0,0,1,11.92-11.23A24.84,24.84,0,0,1,223.14,25,20,20,0,0,1,231,26.5a16.81,16.81,0,0,1,6.1,4.34,20,20,0,0,1,4,7,29.64,29.64,0,0,1,1.42,9.59v2.84Zm21.17-7.74a9.75,9.75,0,0,0-2.84-7.18q-2.76-2.62-7.66-2.63a10.05,10.05,0,0,0-7.36,2.67A11.94,11.94,0,0,0,211,42.54Z"/><path class="cls-4" d="M290.56,47.33a21.94,21.94,0,0,1-1.67,8.72,19.4,19.4,0,0,1-4.53,6.61,19.93,19.93,0,0,1-6.8,4.2,25.51,25.51,0,0,1-17.07,0,20.4,20.4,0,0,1-6.84-4.2,18.73,18.73,0,0,1-4.53-6.61,22.29,22.29,0,0,1-1.63-8.72V13.48H257V47a15,15,0,0,0,.61,4.12,11.35,11.35,0,0,0,2,4,10.61,10.61,0,0,0,3.7,3,14.49,14.49,0,0,0,11.41,0,10.7,10.7,0,0,0,3.7-3,11.53,11.53,0,0,0,2-4A15.35,15.35,0,0,0,281,47V13.48h9.52Z"/><path class="cls-4" d="M295.56,30.7h8.61v5.44h.15a11.68,11.68,0,0,1,5.29-4.83,17.08,17.08,0,0,1,7.18-1.51,18.32,18.32,0,0,1,7.48,1.47,16.77,16.77,0,0,1,5.66,4,17.28,17.28,0,0,1,3.55,6,22.48,22.48,0,0,1,1.21,7.48,21.56,21.56,0,0,1-1.28,7.48,18.81,18.81,0,0,1-3.59,6,16.63,16.63,0,0,1-5.55,4,17.08,17.08,0,0,1-7.11,1.48,17.61,17.61,0,0,1-4.53-.53A16.29,16.29,0,0,1,309.15,66a14.18,14.18,0,0,1-2.56-1.78,12.23,12.23,0,0,1-1.74-1.85h-.23V84.2h-9.06Zm30.07,18.14a12,12,0,0,0-.72-4.08,10.34,10.34,0,0,0-2.12-3.48,10.72,10.72,0,0,0-15.64,0A10.32,10.32,0,0,0,305,44.76a11.92,11.92,0,0,0,0,8.16,10.29,10.29,0,0,0,5.48,5.89,11.36,11.36,0,0,0,8.91,0,10.4,10.4,0,0,0,3.36-2.42,10.3,10.3,0,0,0,2.12-3.47A12,12,0,0,0,325.63,48.84Z"/><path class="cls-5" d="M51.59,20.23a9.78,9.78,0,0,0-4.53-3.61,16,16,0,0,0-6-1.15,15.29,15.29,0,0,0-3.6.43,9.54,9.54,0,0,0-3.14,1.36,7,7,0,0,0-2.25,2.41,7,7,0,0,0-.85,3.52,5.51,5.51,0,0,0,2.12,4.67,20.77,20.77,0,0,0,5.26,2.8c2.1.79,4.39,1.56,6.88,2.29A28.25,28.25,0,0,1,52.36,36a17.05,17.05,0,0,1,5.26,5.17,15.42,15.42,0,0,1,2.12,8.57A18.77,18.77,0,0,1,58,58.19a17.13,17.13,0,0,1-4.8,6,20.51,20.51,0,0,1-7,3.57,29.3,29.3,0,0,1-8.4,1.18A31.6,31.6,0,0,1,27,67.06a20.75,20.75,0,0,1-8.91-6.28L26.14,53a13.44,13.44,0,0,0,5.13,4.62A14.45,14.45,0,0,0,38,59.25a14.09,14.09,0,0,0,3.73-.51,11.51,11.51,0,0,0,3.4-1.52,8.12,8.12,0,0,0,2.46-2.59A7,7,0,0,0,48.54,51a6.3,6.3,0,0,0-2.12-5.09,18.8,18.8,0,0,0-5.26-3c-2.1-.82-4.38-1.6-6.87-2.33a29.4,29.4,0,0,1-6.88-3,16.82,16.82,0,0,1-5.26-5.1A15.18,15.18,0,0,1,20,24a16.21,16.21,0,0,1,1.91-8.06,17.31,17.31,0,0,1,5-5.64A21.86,21.86,0,0,1,34,6.9a30.62,30.62,0,0,1,8.15-1.1,29.74,29.74,0,0,1,9.2,1.44,21.56,21.56,0,0,1,8,4.75Z"/></g></svg>