<svg xmlns="http://www.w3.org/2000/svg" width="123.786" height="123.786" viewBox="0 0 123.786 123.786">
  <g id="Layer_2" data-name="Layer 2" transform="translate(1.363 72.649)">
    <g id="invisible_box" data-name="invisible box" transform="translate(-1.363 -72.649)">
      <rect id="Rectangle_3384" data-name="Rectangle 3384" width="123.786" height="123.786" fill="none"/>
    </g>
    <g id="icons_Q2" data-name="icons Q2" transform="translate(0.637 -70.649)">
      <g id="Group_12452" data-name="Group 12452">
        <path id="Path_17584" data-name="Path 17584" d="M65.8,41.653l-45.09-27.6c-1.64-1.093-3.006-.273-3.006,1.64V71.44c0,1.913,1.366,2.733,3.006,1.64l45.09-27.6a2.186,2.186,0,0,0,0-3.826Z" transform="translate(23.575 16.326)" fill="#b7b7b7"/>
        <path id="Path_17585" data-name="Path 17585" d="M61.976,2.084a59.621,59.621,0,1,0,42.431,17.462A59.893,59.893,0,0,0,61.976,2.084Zm0,108.9a49,49,0,1,1,49-49A49,49,0,0,1,61.976,110.98Z" transform="translate(-2.083 -2.083)" fill="#b7b7b7"/>
      </g>
    </g>
  </g>
</svg>
